<svg width="202" height="103" viewBox="0 0 202 103" fill="none" xmlns="http://www.w3.org/2000/svg">
<path d="M138.89 102.616C141.142 102.616 143.048 100.71 143.048 98.4572C143.048 96.2046 141.142 94.2986 138.89 94.2986C136.637 94.2986 134.731 96.2046 134.731 98.4572C134.731 100.71 136.637 102.616 138.89 102.616Z" fill="#3E54EB" fill-opacity="0.2"/>
<path d="M158.123 102.616C160.376 102.616 162.282 100.71 162.282 98.4572C162.282 96.2046 160.376 94.2986 158.123 94.2986C155.871 94.2986 153.965 96.2046 153.965 98.4572C153.792 100.71 155.698 102.616 158.123 102.616Z" fill="#3E54EB" fill-opacity="0.2"/>
<path d="M177.184 102.616C179.436 102.616 181.342 100.71 181.342 98.4572C181.342 96.2046 179.436 94.2986 177.184 94.2986C174.931 94.2986 173.025 96.2046 173.025 98.4572C173.025 100.71 174.931 102.616 177.184 102.616Z" fill="#3E54EB" fill-opacity="0.2"/>
<path d="M138.89 82.6891C141.142 82.6891 143.048 80.783 143.048 78.5304C143.048 76.2778 141.142 74.3718 138.89 74.3718C136.637 74.3718 134.731 76.2778 134.731 78.5304C134.731 80.783 136.637 82.6891 138.89 82.6891Z" fill="#3E54EB" fill-opacity="0.2"/>
<path d="M158.123 82.6891C160.376 82.6891 162.282 80.783 162.282 78.5304C162.282 76.2778 160.376 74.3718 158.123 74.3718C155.871 74.3718 153.965 76.2778 153.965 78.5304C153.965 80.783 155.698 82.6891 158.123 82.6891Z" fill="#3E54EB" fill-opacity="0.2"/>
<path d="M177.184 82.6891C179.436 82.6891 181.342 80.783 181.342 78.5304C181.342 76.2778 179.436 74.3718 177.184 74.3718C174.931 74.3718 173.025 76.2778 173.025 78.5304C173.025 80.783 174.931 82.6891 177.184 82.6891Z" fill="#3E54EB" fill-opacity="0.2"/>
<path d="M134.731 58.6037C134.731 60.9004 136.593 62.7623 138.89 62.7623C141.186 62.7623 143.048 60.9004 143.048 58.6037C143.048 56.3069 141.186 54.4451 138.89 54.4451C136.593 54.4451 134.731 56.3069 134.731 58.6037Z" fill="#3E54EB" fill-opacity="0.2"/>
<path d="M153.965 58.6037C153.965 60.9004 155.827 62.7623 158.123 62.7623C160.42 62.7623 162.282 60.9004 162.282 58.6037C162.282 56.3069 160.42 54.4451 158.123 54.4451C155.827 54.4451 153.965 56.3069 153.965 58.6037Z" fill="#3E54EB" fill-opacity="0.2"/>
<path d="M173.025 58.6037C173.025 60.9004 174.887 62.7623 177.184 62.7623C179.48 62.7623 181.342 60.9004 181.342 58.6037C181.342 56.3069 179.48 54.4451 177.184 54.4451C174.887 54.4451 173.025 56.3069 173.025 58.6037Z" fill="#3E54EB" fill-opacity="0.2"/>
<path d="M138.89 43.0091C141.142 43.0091 143.048 41.1031 143.048 38.8505C143.048 36.5979 141.142 34.6919 138.89 34.6919C136.637 34.6919 134.731 36.5979 134.731 38.8505C134.731 41.1031 136.637 43.0091 138.89 43.0091Z" fill="#3E54EB" fill-opacity="0.2"/>
<path d="M158.123 43.0091C160.376 43.0091 162.282 41.1031 162.282 38.8505C162.282 36.5979 160.376 34.6919 158.123 34.6919C155.871 34.6919 153.965 36.5979 153.965 38.8505C153.965 41.1031 155.698 43.0091 158.123 43.0091Z" fill="#3E54EB" fill-opacity="0.2"/>
<path d="M177.184 43.0091C179.436 43.0091 181.342 41.1031 181.342 38.8505C181.342 36.5979 179.436 34.6919 177.184 34.6919C174.931 34.6919 173.025 36.5979 173.025 38.8505C173.025 41.1031 174.931 43.0091 177.184 43.0091Z" fill="#3E54EB" fill-opacity="0.2"/>
<path d="M138.89 23.0823C141.142 23.0823 143.048 21.1763 143.048 18.9237C143.048 16.6712 141.142 14.7651 138.89 14.7651C136.637 14.7651 134.731 16.6712 134.731 18.9237C134.731 21.1763 136.637 23.0823 138.89 23.0823Z" fill="#3E54EB" fill-opacity="0.2"/>
<path d="M158.123 23.0823C160.376 23.0823 162.282 21.1763 162.282 18.9237C162.282 16.6712 160.376 14.7651 158.123 14.7651C155.871 14.7651 153.965 16.6712 153.965 18.9237C153.792 21.1763 155.698 23.0823 158.123 23.0823Z" fill="#3E54EB" fill-opacity="0.2"/>
<path d="M177.184 23.0826C179.436 23.0826 181.342 21.1766 181.342 18.924C181.342 16.6714 179.436 14.7654 177.184 14.7654C174.931 14.7654 173.025 16.6714 173.025 18.924C173.025 21.1766 174.931 23.0826 177.184 23.0826Z" fill="#3E54EB" fill-opacity="0.2"/>
<path d="M4.77452 94.125C2.52193 94.125 0.615914 96.0311 0.615914 98.2837C0.615914 100.536 2.52193 102.442 4.77452 102.442C7.0271 102.442 8.93312 100.536 8.93312 98.2837C8.93312 96.0311 7.20038 94.125 4.77452 94.125Z" fill="#3E54EB" fill-opacity="0.2"/>
<path d="M24.0083 102.616C26.2608 102.616 28.1669 100.71 28.1669 98.4572C28.1669 96.2046 26.2608 94.2986 24.0083 94.2986C21.7557 94.2986 19.8496 96.2046 19.8496 98.4572C19.8496 100.71 21.5824 102.616 24.0083 102.616Z" fill="#3E54EB" fill-opacity="0.2"/>
<path d="M43.0687 102.616C45.3212 102.616 47.2273 100.71 47.2273 98.4572C47.2273 96.2046 45.3212 94.2986 43.0687 94.2986C40.8161 94.2986 38.9101 96.2046 38.9101 98.4572C38.9101 100.71 40.8161 102.616 43.0687 102.616Z" fill="#3E54EB" fill-opacity="0.2"/>
<path d="M62.3024 102.616C64.555 102.616 66.461 100.71 66.461 98.4572C66.461 96.2046 64.555 94.2986 62.3024 94.2986C60.0498 94.2986 58.1438 96.2046 58.1438 98.4572C58.1438 100.71 59.8765 102.616 62.3024 102.616Z" fill="#3E54EB" fill-opacity="0.2"/>
<path d="M81.3626 102.616C83.6152 102.616 85.5212 100.71 85.5212 98.4572C85.5212 96.2046 83.6152 94.2986 81.3626 94.2986C79.11 94.2986 77.204 96.2046 77.204 98.4572C77.204 100.71 79.11 102.616 81.3626 102.616Z" fill="#3E54EB" fill-opacity="0.2"/>
<path d="M100.596 102.616C102.848 102.616 104.754 100.71 104.754 98.4572C104.754 96.2046 102.848 94.2986 100.596 94.2986C98.343 94.2986 96.4369 96.2046 96.4369 98.4572C96.4369 100.71 98.343 102.616 100.596 102.616Z" fill="#3E54EB" fill-opacity="0.2"/>
<path d="M119.829 102.616C122.082 102.616 123.988 100.71 123.988 98.4572C123.988 96.2046 122.082 94.2986 119.829 94.2986C117.577 94.2986 115.671 96.2046 115.671 98.4572C115.497 100.71 117.403 102.616 119.829 102.616Z" fill="#3E54EB" fill-opacity="0.2"/>
<path d="M4.77452 82.6891C7.0271 82.6891 8.93312 80.783 8.93312 78.5304C8.93312 76.2778 7.0271 74.3718 4.77452 74.3718C2.52193 74.3718 0.615914 76.2778 0.615914 78.5304C0.615914 80.783 2.52193 82.6891 4.77452 82.6891Z" fill="#3E54EB" fill-opacity="0.2"/>
<path d="M24.0083 82.6891C26.2608 82.6891 28.1669 80.783 28.1669 78.5304C28.1669 76.2778 26.2608 74.3718 24.0083 74.3718C21.7557 74.3718 19.8497 76.2778 19.8497 78.5304C19.8497 80.783 21.5824 82.6891 24.0083 82.6891Z" fill="#3E54EB" fill-opacity="0.2"/>
<path d="M43.0687 82.6891C45.3213 82.6891 47.2273 80.783 47.2273 78.5304C47.2273 76.2778 45.3213 74.3718 43.0687 74.3718C40.8161 74.3718 38.9101 76.2778 38.9101 78.5304C38.9101 80.783 40.8161 82.6891 43.0687 82.6891Z" fill="#3E54EB" fill-opacity="0.2"/>
<path d="M62.3024 82.6891C64.555 82.6891 66.461 80.783 66.461 78.5304C66.461 76.2778 64.555 74.3718 62.3024 74.3718C60.0498 74.3718 58.1438 76.2778 58.1438 78.5304C58.1438 80.783 59.8765 82.6891 62.3024 82.6891Z" fill="#3E54EB" fill-opacity="0.2"/>
<path d="M81.3626 82.6891C83.6152 82.6891 85.5212 80.783 85.5212 78.5304C85.5212 76.2778 83.6152 74.3718 81.3626 74.3718C79.11 74.3718 77.204 76.2778 77.204 78.5304C77.204 80.783 79.11 82.6891 81.3626 82.6891Z" fill="#3E54EB" fill-opacity="0.2"/>
<path d="M100.596 82.6891C102.848 82.6891 104.754 80.783 104.754 78.5304C104.754 76.2778 102.848 74.3718 100.596 74.3718C98.343 74.3718 96.4369 76.2778 96.4369 78.5304C96.4369 80.783 98.343 82.6891 100.596 82.6891Z" fill="#3E54EB" fill-opacity="0.2"/>
<path d="M119.829 82.6891C122.082 82.6891 123.988 80.783 123.988 78.5304C123.988 76.2778 122.082 74.3718 119.829 74.3718C117.577 74.3718 115.671 76.2778 115.671 78.5304C115.671 80.783 117.403 82.6891 119.829 82.6891Z" fill="#3E54EB" fill-opacity="0.2"/>
<path d="M4.77452 62.7623C7.0271 62.7623 8.93312 60.8563 8.93312 58.6037C8.93312 56.3511 7.0271 54.4451 4.77452 54.4451C2.52193 54.4451 0.615914 56.3511 0.615914 58.6037C0.615914 60.8563 2.52193 62.7623 4.77452 62.7623Z" fill="#3E54EB" fill-opacity="0.2"/>
<path d="M24.0083 62.7623C26.2608 62.7623 28.1669 60.8563 28.1669 58.6037C28.1669 56.3511 26.2608 54.4451 24.0083 54.4451C21.7557 54.4451 19.8497 56.3511 19.8497 58.6037C19.8497 60.8563 21.5824 62.7623 24.0083 62.7623Z" fill="#3E54EB" fill-opacity="0.2"/>
<path d="M43.0687 62.7623C45.3213 62.7623 47.2273 60.8563 47.2273 58.6037C47.2273 56.3511 45.3213 54.4451 43.0687 54.4451C40.8161 54.4451 38.9101 56.3511 38.9101 58.6037C38.9101 60.8563 40.8161 62.7623 43.0687 62.7623Z" fill="#3E54EB" fill-opacity="0.2"/>
<path d="M62.3024 62.7623C64.555 62.7623 66.461 60.8563 66.461 58.6037C66.461 56.3511 64.555 54.4451 62.3024 54.4451C60.0498 54.4451 58.1438 56.3511 58.1438 58.6037C58.1438 60.8563 59.8765 62.7623 62.3024 62.7623Z" fill="#3E54EB" fill-opacity="0.2"/>
<path d="M77.204 58.6037C77.204 60.9004 79.0659 62.7623 81.3626 62.7623C83.6594 62.7623 85.5212 60.9004 85.5212 58.6037C85.5212 56.3069 83.6594 54.4451 81.3626 54.4451C79.0659 54.4451 77.204 56.3069 77.204 58.6037Z" fill="#3E54EB" fill-opacity="0.2"/>
<path d="M100.596 62.7623C102.848 62.7623 104.754 60.8563 104.754 58.6037C104.754 56.3511 102.848 54.4451 100.596 54.4451C98.343 54.4451 96.4369 56.3511 96.4369 58.6037C96.4369 60.8563 98.343 62.7623 100.596 62.7623Z" fill="#3E54EB" fill-opacity="0.2"/>
<path d="M119.829 62.7623C122.082 62.7623 123.988 60.8563 123.988 58.6037C123.988 56.3511 122.082 54.4451 119.829 54.4451C117.577 54.4451 115.671 56.3511 115.671 58.6037C115.497 60.8563 117.403 62.7623 119.829 62.7623Z" fill="#3E54EB" fill-opacity="0.2"/>
<path d="M4.77452 43.0091C7.0271 43.0091 8.93312 41.1031 8.93312 38.8505C8.93312 36.5979 7.0271 34.6919 4.77452 34.6919C2.52193 34.6919 0.615914 36.5979 0.615914 38.8505C0.615914 41.1031 2.52193 43.0091 4.77452 43.0091Z" fill="#3E54EB" fill-opacity="0.2"/>
<path d="M24.0083 43.0091C26.2608 43.0091 28.1669 41.1031 28.1669 38.8505C28.1669 36.5979 26.2608 34.6919 24.0083 34.6919C21.7557 34.6919 19.8497 36.5979 19.8497 38.8505C19.8497 41.1031 21.5824 43.0091 24.0083 43.0091Z" fill="#3E54EB" fill-opacity="0.2"/>
<path d="M43.0687 43.0091C45.3213 43.0091 47.2273 41.1031 47.2273 38.8505C47.2273 36.5979 45.3213 34.6919 43.0687 34.6919C40.8161 34.6919 38.9101 36.5979 38.9101 38.8505C38.9101 41.1031 40.8161 43.0091 43.0687 43.0091Z" fill="#3E54EB" fill-opacity="0.2"/>
<path d="M62.3024 43.0091C64.555 43.0091 66.461 41.1031 66.461 38.8505C66.461 36.5979 64.555 34.6919 62.3024 34.6919C60.0498 34.6919 58.1438 36.5979 58.1438 38.8505C58.1438 41.1031 59.8765 43.0091 62.3024 43.0091Z" fill="#3E54EB" fill-opacity="0.2"/>
<path d="M81.3626 43.0091C83.6152 43.0091 85.5212 41.1031 85.5212 38.8505C85.5212 36.5979 83.6152 34.6919 81.3626 34.6919C79.11 34.6919 77.204 36.5979 77.204 38.8505C77.204 41.1031 79.11 43.0091 81.3626 43.0091Z" fill="#3E54EB" fill-opacity="0.2"/>
<path d="M100.596 43.0091C102.848 43.0091 104.754 41.1031 104.754 38.8505C104.754 36.5979 102.848 34.6919 100.596 34.6919C98.343 34.6919 96.4369 36.5979 96.4369 38.8505C96.4369 41.1031 98.343 43.0091 100.596 43.0091Z" fill="#3E54EB" fill-opacity="0.2"/>
<path d="M119.829 43.0091C122.082 43.0091 123.988 41.1031 123.988 38.8505C123.988 36.5979 122.082 34.6919 119.829 34.6919C117.577 34.6919 115.671 36.5979 115.671 38.8505C115.671 41.1031 117.403 43.0091 119.829 43.0091Z" fill="#3E54EB" fill-opacity="0.2"/>
<path d="M4.77453 23.0823C7.02711 23.0823 8.93314 21.1763 8.93314 18.9237C8.93314 16.6712 7.02712 14.7651 4.77453 14.7651C2.52195 14.7651 0.61593 16.6712 0.615929 18.9237C0.615929 21.1763 2.52195 23.0823 4.77453 23.0823Z" fill="#3E54EB" fill-opacity="0.2"/>
<path d="M24.0083 23.0823C26.2608 23.0823 28.1669 21.1763 28.1669 18.9237C28.1669 16.6712 26.2608 14.7651 24.0083 14.7651C21.7557 14.7651 19.8497 16.6712 19.8497 18.9237C19.8497 21.1763 21.5824 23.0823 24.0083 23.0823Z" fill="#3E54EB" fill-opacity="0.2"/>
<path d="M43.0687 23.0823C45.3213 23.0823 47.2273 21.1763 47.2273 18.9237C47.2273 16.6712 45.3213 14.7651 43.0687 14.7651C40.8161 14.7651 38.9101 16.6712 38.9101 18.9237C38.9101 21.1763 40.8161 23.0823 43.0687 23.0823Z" fill="#3E54EB" fill-opacity="0.2"/>
<path d="M62.3024 23.0823C64.555 23.0823 66.461 21.1763 66.461 18.9237C66.461 16.6712 64.555 14.7651 62.3024 14.7651C60.0498 14.7651 58.1438 16.6712 58.1438 18.9237C58.1438 21.1763 59.8765 23.0823 62.3024 23.0823Z" fill="#3E54EB" fill-opacity="0.2"/>
<path d="M81.3626 23.0823C83.6152 23.0823 85.5212 21.1763 85.5212 18.9237C85.5212 16.6712 83.6152 14.7651 81.3626 14.7651C79.11 14.7651 77.204 16.6712 77.204 18.9237C77.204 21.1763 79.11 23.0823 81.3626 23.0823Z" fill="#3E54EB" fill-opacity="0.2"/>
<path d="M100.596 23.0823C102.848 23.0823 104.754 21.1763 104.754 18.9237C104.754 16.6712 102.848 14.7651 100.596 14.7651C98.343 14.7651 96.4369 16.6712 96.4369 18.9237C96.4369 21.1763 98.343 23.0823 100.596 23.0823Z" fill="#3E54EB" fill-opacity="0.2"/>
<path d="M119.829 23.0823C122.082 23.0823 123.988 21.1763 123.988 18.9237C123.988 16.6712 122.082 14.7651 119.829 14.7651C117.577 14.7651 115.671 16.6712 115.671 18.9237C115.497 21.1763 117.403 23.0823 119.829 23.0823Z" fill="#3E54EB" fill-opacity="0.2"/>
<path d="M159.163 88.0609C161.416 88.0609 163.322 86.1548 163.322 83.9023C163.322 81.6497 161.416 79.7437 159.163 79.7437C156.911 79.7437 155.005 81.6497 155.005 83.9023C155.005 86.1548 156.911 88.0609 159.163 88.0609Z" fill="#3E54EB"/>
<path d="M178.397 88.0609C180.65 88.0609 182.556 86.1548 182.556 83.9023C182.556 81.6497 180.65 79.7437 178.397 79.7437C176.145 79.7437 174.239 81.6497 174.239 83.9023C174.239 86.1548 175.971 88.0609 178.397 88.0609Z" fill="#3E54EB"/>
<path d="M197.458 88.0609C199.71 88.0609 201.616 86.1548 201.616 83.9023C201.616 81.6497 199.71 79.7437 197.458 79.7437C195.205 79.7437 193.299 81.6497 193.299 83.9023C193.299 86.1548 195.205 88.0609 197.458 88.0609Z" fill="#3E54EB"/>
<path d="M159.163 68.1343C161.416 68.1343 163.322 66.2283 163.322 63.9757C163.322 61.7232 161.416 59.8171 159.163 59.8171C156.911 59.8171 155.005 61.7232 155.005 63.9757C155.005 66.2283 156.911 68.1343 159.163 68.1343Z" fill="#3E54EB"/>
<path d="M178.397 68.1343C180.65 68.1343 182.556 66.2283 182.556 63.9757C182.556 61.7232 180.65 59.8171 178.397 59.8171C176.145 59.8171 174.239 61.7232 174.239 63.9757C174.239 66.2283 175.971 68.1343 178.397 68.1343Z" fill="#3E54EB"/>
<path d="M197.458 68.1343C199.71 68.1343 201.616 66.2283 201.616 63.9757C201.616 61.7232 199.71 59.8171 197.458 59.8171C195.205 59.8171 193.299 61.7232 193.299 63.9757C193.299 66.2283 195.205 68.1343 197.458 68.1343Z" fill="#3E54EB"/>
<path d="M159.163 48.3809C161.416 48.3809 163.322 46.4749 163.322 44.2223C163.322 41.9697 161.416 40.0637 159.163 40.0637C156.911 40.0637 155.005 41.9697 155.005 44.2223C155.005 46.4749 156.911 48.3809 159.163 48.3809Z" fill="#3E54EB"/>
<path d="M178.397 48.3809C180.65 48.3809 182.556 46.4749 182.556 44.2223C182.556 41.9697 180.65 40.0637 178.397 40.0637C176.145 40.0637 174.239 41.9697 174.239 44.2223C174.239 46.4749 175.971 48.3809 178.397 48.3809Z" fill="#3E54EB"/>
<path d="M197.458 48.3809C199.71 48.3809 201.616 46.4749 201.616 44.2223C201.616 41.9697 199.71 40.0637 197.458 40.0637C195.205 40.0637 193.299 41.9697 193.299 44.2223C193.299 46.4749 195.205 48.3809 197.458 48.3809Z" fill="#3E54EB"/>
<path d="M159.163 28.4544C161.416 28.4544 163.322 26.5484 163.322 24.2958C163.322 22.0432 161.416 20.1372 159.163 20.1372C156.911 20.1372 155.005 22.0432 155.005 24.2958C155.005 26.5484 156.911 28.4544 159.163 28.4544Z" fill="#3E54EB"/>
<path d="M178.397 28.4544C180.65 28.4544 182.556 26.5484 182.556 24.2958C182.556 22.0432 180.65 20.1372 178.397 20.1372C176.145 20.1372 174.239 22.0432 174.239 24.2958C174.239 26.5484 175.971 28.4544 178.397 28.4544Z" fill="#3E54EB"/>
<path d="M197.458 28.4544C199.71 28.4544 201.616 26.5484 201.616 24.2958C201.616 22.0432 199.71 20.1372 197.458 20.1372C195.205 20.1372 193.299 22.0432 193.299 24.2958C193.299 26.5484 195.205 28.4544 197.458 28.4544Z" fill="#3E54EB"/>
<path d="M159.163 8.701C161.416 8.701 163.322 6.79497 163.322 4.54239C163.322 2.28981 161.416 0.383789 159.163 0.383789C156.911 0.383789 155.005 2.28981 155.005 4.54239C155.005 6.79497 156.911 8.701 159.163 8.701Z" fill="#3E54EB"/>
<path d="M178.397 8.701C180.65 8.701 182.556 6.79497 182.556 4.54239C182.556 2.28981 180.65 0.383789 178.397 0.383789C176.145 0.383789 174.239 2.28981 174.239 4.54239C174.239 6.79497 175.971 8.701 178.397 8.701Z" fill="#3E54EB"/>
<path d="M197.458 8.701C199.71 8.701 201.616 6.79497 201.616 4.54239C201.616 2.28981 199.71 0.383789 197.458 0.383789C195.205 0.383789 193.299 2.28981 193.299 4.54239C193.299 6.79497 195.205 8.701 197.458 8.701Z" fill="#3E54EB"/>
<path d="M25.0484 79.571C22.7958 79.571 20.8898 81.4771 20.8898 83.7296C20.8898 85.9822 22.7958 87.8883 25.0484 87.8883C27.301 87.8883 29.207 85.9822 29.207 83.7296C29.207 81.4771 27.4742 79.571 25.0484 79.571Z" fill="#3E54EB"/>
<path d="M40.1235 83.9023C40.1235 86.199 41.9854 88.0609 44.2821 88.0609C46.5788 88.0609 48.4407 86.199 48.4407 83.9023C48.4407 81.6055 46.5788 79.7437 44.2821 79.7437C41.9854 79.7437 40.1235 81.6055 40.1235 83.9023Z" fill="#3E54EB"/>
<path d="M63.3423 88.0609C65.5949 88.0609 67.5009 86.1548 67.5009 83.9023C67.5009 81.6497 65.5949 79.7437 63.3423 79.7437C61.0897 79.7437 59.1837 81.6497 59.1837 83.9023C59.1837 86.1548 61.0897 88.0609 63.3423 88.0609Z" fill="#3E54EB"/>
<path d="M78.4174 83.9023C78.4174 86.199 80.2793 88.0609 82.576 88.0609C84.8728 88.0609 86.7347 86.199 86.7347 83.9023C86.7347 81.6055 84.8728 79.7437 82.576 79.7437C80.2793 79.7437 78.4174 81.6055 78.4174 83.9023Z" fill="#3E54EB"/>
<path d="M97.6504 83.9023C97.6504 86.199 99.5123 88.0609 101.809 88.0609C104.106 88.0609 105.968 86.199 105.968 83.9023C105.968 81.6055 104.106 79.7437 101.809 79.7437C99.5123 79.7437 97.6504 81.6055 97.6504 83.9023Z" fill="#3E54EB"/>
<path d="M120.869 88.0609C123.122 88.0609 125.028 86.1548 125.028 83.9023C125.028 81.6497 123.122 79.7437 120.869 79.7437C118.617 79.7437 116.711 81.6497 116.711 83.9023C116.711 86.1548 118.617 88.0609 120.869 88.0609Z" fill="#3E54EB"/>
<path d="M135.945 83.9023C135.945 86.199 137.806 88.0609 140.103 88.0609C142.4 88.0609 144.262 86.199 144.262 83.9023C144.262 81.6055 142.4 79.7437 140.103 79.7437C137.806 79.7437 135.945 81.6055 135.945 83.9023Z" fill="#3E54EB"/>
<path d="M25.0484 68.1343C27.301 68.1343 29.207 66.2283 29.207 63.9757C29.207 61.7232 27.301 59.8171 25.0484 59.8171C22.7958 59.8171 20.8898 61.7232 20.8898 63.9757C20.8898 66.2283 22.7958 68.1343 25.0484 68.1343Z" fill="#3E54EB"/>
<path d="M40.1235 63.9757C40.1235 66.2725 41.9854 68.1343 44.2821 68.1343C46.5789 68.1343 48.4407 66.2725 48.4407 63.9757C48.4407 61.679 46.5789 59.8171 44.2821 59.8171C41.9854 59.8171 40.1235 61.679 40.1235 63.9757Z" fill="#3E54EB"/>
<path d="M63.3423 68.1343C65.5949 68.1343 67.5009 66.2283 67.5009 63.9757C67.5009 61.7232 65.5949 59.8171 63.3423 59.8171C61.0897 59.8171 59.1837 61.7232 59.1837 63.9757C59.1837 66.2283 61.0897 68.1343 63.3423 68.1343Z" fill="#3E54EB"/>
<path d="M78.4174 63.9757C78.4174 66.2725 80.2793 68.1343 82.576 68.1343C84.8728 68.1343 86.7347 66.2725 86.7347 63.9757C86.7347 61.679 84.8728 59.8171 82.576 59.8171C80.2793 59.8171 78.4174 61.679 78.4174 63.9757Z" fill="#3E54EB"/>
<path d="M97.6504 63.9757C97.6504 66.2725 99.5123 68.1343 101.809 68.1343C104.106 68.1343 105.968 66.2725 105.968 63.9757C105.968 61.679 104.106 59.8171 101.809 59.8171C99.5123 59.8171 97.6504 61.679 97.6504 63.9757Z" fill="#3E54EB"/>
<path d="M120.869 68.1343C123.122 68.1343 125.028 66.2283 125.028 63.9757C125.028 61.7232 123.122 59.8171 120.869 59.8171C118.617 59.8171 116.711 61.7232 116.711 63.9757C116.711 66.2283 118.617 68.1343 120.869 68.1343Z" fill="#3E54EB"/>
<path d="M135.945 63.9757C135.945 66.2725 137.806 68.1343 140.103 68.1343C142.4 68.1343 144.262 66.2725 144.262 63.9757C144.262 61.679 142.4 59.8171 140.103 59.8171C137.806 59.8171 135.945 61.679 135.945 63.9757Z" fill="#3E54EB"/>
<path d="M25.0484 48.3809C27.301 48.3809 29.207 46.4749 29.207 44.2223C29.207 41.9697 27.301 40.0637 25.0484 40.0637C22.7958 40.0637 20.8898 41.9697 20.8898 44.2223C20.8898 46.4749 22.7958 48.3809 25.0484 48.3809Z" fill="#3E54EB"/>
<path d="M44.2821 48.3809C46.5347 48.3809 48.4407 46.4749 48.4407 44.2223C48.4407 41.9697 46.5347 40.0637 44.2821 40.0637C42.0295 40.0637 40.1235 41.9697 40.1235 44.2223C40.1235 46.4749 41.8563 48.3809 44.2821 48.3809Z" fill="#3E54EB"/>
<path d="M63.3423 48.3809C65.5949 48.3809 67.5009 46.4749 67.5009 44.2223C67.5009 41.9697 65.5949 40.0637 63.3423 40.0637C61.0897 40.0637 59.1837 41.9697 59.1837 44.2223C59.1837 46.4749 61.0897 48.3809 63.3423 48.3809Z" fill="#3E54EB"/>
<path d="M82.576 48.3809C84.8286 48.3809 86.7347 46.4749 86.7347 44.2223C86.7347 41.9697 84.8286 40.0637 82.576 40.0637C80.3234 40.0637 78.4174 41.9697 78.4174 44.2223C78.4174 46.4749 80.3234 48.3809 82.576 48.3809Z" fill="#3E54EB"/>
<path d="M101.809 48.3809C104.062 48.3809 105.968 46.4749 105.968 44.2223C105.968 41.9697 104.062 40.0637 101.809 40.0637C99.5564 40.0637 97.6504 41.9697 97.6504 44.2223C97.4771 46.4749 99.3832 48.3809 101.809 48.3809Z" fill="#3E54EB"/>
<path d="M120.869 48.3809C123.122 48.3809 125.028 46.4749 125.028 44.2223C125.028 41.9697 123.122 40.0637 120.869 40.0637C118.617 40.0637 116.711 41.9697 116.711 44.2223C116.711 46.4749 118.617 48.3809 120.869 48.3809Z" fill="#3E54EB"/>
<path d="M140.103 48.3809C142.356 48.3809 144.262 46.4749 144.262 44.2223C144.262 41.9697 142.356 40.0637 140.103 40.0637C137.851 40.0637 135.945 41.9697 135.945 44.2223C135.771 46.4749 137.677 48.3809 140.103 48.3809Z" fill="#3E54EB"/>
<path d="M25.0484 28.4544C27.301 28.4544 29.207 26.5484 29.207 24.2958C29.207 22.0432 27.301 20.1372 25.0484 20.1372C22.7958 20.1372 20.8898 22.0432 20.8898 24.2958C20.8898 26.5484 22.7958 28.4544 25.0484 28.4544Z" fill="#3E54EB"/>
<path d="M44.2821 28.4544C46.5347 28.4544 48.4407 26.5484 48.4407 24.2958C48.4407 22.0432 46.5347 20.1372 44.2821 20.1372C42.0295 20.1372 40.1235 22.0432 40.1235 24.2958C40.1235 26.5484 41.8563 28.4544 44.2821 28.4544Z" fill="#3E54EB"/>
<path d="M63.3423 28.4544C65.5949 28.4544 67.5009 26.5484 67.5009 24.2958C67.5009 22.0432 65.5949 20.1372 63.3423 20.1372C61.0897 20.1372 59.1837 22.0432 59.1837 24.2958C59.1837 26.5484 61.0897 28.4544 63.3423 28.4544Z" fill="#3E54EB"/>
<path d="M82.576 28.4544C84.8286 28.4544 86.7347 26.5484 86.7347 24.2958C86.7347 22.0432 84.8286 20.1372 82.576 20.1372C80.3234 20.1372 78.4174 22.0432 78.4174 24.2958C78.4174 26.5484 80.3234 28.4544 82.576 28.4544Z" fill="#3E54EB"/>
<path d="M101.809 28.4544C104.062 28.4544 105.968 26.5484 105.968 24.2958C105.968 22.0432 104.062 20.1372 101.809 20.1372C99.5564 20.1372 97.6504 22.0432 97.6504 24.2958C97.4771 26.5484 99.3832 28.4544 101.809 28.4544Z" fill="#3E54EB"/>
<path d="M120.869 28.4544C123.122 28.4544 125.028 26.5484 125.028 24.2958C125.028 22.0432 123.122 20.1372 120.869 20.1372C118.617 20.1372 116.711 22.0432 116.711 24.2958C116.711 26.5484 118.617 28.4544 120.869 28.4544Z" fill="#3E54EB"/>
<path d="M140.103 28.4544C142.356 28.4544 144.262 26.5484 144.262 24.2958C144.262 22.0432 142.356 20.1372 140.103 20.1372C137.851 20.1372 135.945 22.0432 135.945 24.2958C135.771 26.5484 137.677 28.4544 140.103 28.4544Z" fill="#3E54EB"/>
<path d="M25.0484 8.701C27.301 8.701 29.207 6.79497 29.207 4.54239C29.207 2.28981 27.301 0.383789 25.0484 0.383789C22.7958 0.383789 20.8898 2.28981 20.8898 4.54239C20.8898 6.79497 22.7958 8.701 25.0484 8.701Z" fill="#3E54EB"/>
<path d="M44.2821 8.701C46.5347 8.701 48.4407 6.79497 48.4407 4.54239C48.4407 2.28981 46.5347 0.383789 44.2821 0.383789C42.0295 0.383789 40.1235 2.28981 40.1235 4.54239C40.1235 6.79497 41.8563 8.701 44.2821 8.701Z" fill="#3E54EB"/>
<path d="M63.3423 8.701C65.5949 8.701 67.5009 6.79497 67.5009 4.54239C67.5009 2.28981 65.5949 0.383789 63.3423 0.383789C61.0897 0.383789 59.1837 2.28981 59.1837 4.54239C59.1837 6.79497 61.0897 8.701 63.3423 8.701Z" fill="#3E54EB"/>
<path d="M82.576 8.701C84.8286 8.701 86.7347 6.79497 86.7347 4.54239C86.7347 2.28981 84.8286 0.383789 82.576 0.383789C80.3234 0.383789 78.4174 2.28981 78.4174 4.54239C78.4174 6.79497 80.3234 8.701 82.576 8.701Z" fill="#3E54EB"/>
<path d="M101.809 8.701C104.062 8.701 105.968 6.79497 105.968 4.54239C105.968 2.28981 104.062 0.383789 101.809 0.383789C99.5564 0.383789 97.6504 2.28981 97.6504 4.54239C97.6504 6.79497 99.3832 8.701 101.809 8.701Z" fill="#3E54EB"/>
<path d="M120.869 8.701C123.122 8.701 125.028 6.79497 125.028 4.54239C125.028 2.28981 123.122 0.383789 120.869 0.383789C118.617 0.383789 116.711 2.28981 116.711 4.54239C116.711 6.79497 118.617 8.701 120.869 8.701Z" fill="#3E54EB"/>
<path d="M140.103 8.701C142.356 8.701 144.262 6.79497 144.262 4.54239C144.262 2.28981 142.356 0.383789 140.103 0.383789C137.851 0.383789 135.945 2.28981 135.945 4.54239C135.945 6.79497 137.677 8.701 140.103 8.701Z" fill="#3E54EB"/>
</svg>
