<svg width="201" height="103" viewBox="0 0 201 103" fill="none" xmlns="http://www.w3.org/2000/svg">
<path d="M138.273 102.232C140.526 102.232 142.432 100.326 142.432 98.0732C142.432 95.8206 140.526 93.9146 138.273 93.9146C136.021 93.9146 134.115 95.8206 134.115 98.0732C134.115 100.326 136.021 102.232 138.273 102.232Z" fill="#3E54EB" fill-opacity="0.2"/>
<path d="M157.507 102.232C159.76 102.232 161.666 100.326 161.666 98.0732C161.666 95.8206 159.76 93.9146 157.507 93.9146C155.255 93.9146 153.349 95.8206 153.349 98.0732C153.175 100.326 155.081 102.232 157.507 102.232Z" fill="#3E54EB" fill-opacity="0.2"/>
<path d="M176.567 102.232C178.82 102.232 180.726 100.326 180.726 98.0732C180.726 95.8206 178.82 93.9146 176.567 93.9146C174.315 93.9146 172.409 95.8206 172.409 98.0732C172.409 100.326 174.315 102.232 176.567 102.232Z" fill="#3E54EB" fill-opacity="0.2"/>
<path d="M138.273 82.3055C140.526 82.3055 142.432 80.3995 142.432 78.1469C142.432 75.8943 140.526 73.9883 138.273 73.9883C136.021 73.9883 134.115 75.8943 134.115 78.1469C134.115 80.3995 136.021 82.3055 138.273 82.3055Z" fill="#3E54EB" fill-opacity="0.2"/>
<path d="M157.507 82.3055C159.76 82.3055 161.666 80.3995 161.666 78.1469C161.666 75.8943 159.76 73.9883 157.507 73.9883C155.255 73.9883 153.349 75.8943 153.349 78.1469C153.349 80.3995 155.081 82.3055 157.507 82.3055Z" fill="#3E54EB" fill-opacity="0.2"/>
<path d="M176.567 82.3055C178.82 82.3055 180.726 80.3995 180.726 78.1469C180.726 75.8943 178.82 73.9883 176.567 73.9883C174.315 73.9883 172.409 75.8943 172.409 78.1469C172.409 80.3995 174.315 82.3055 176.567 82.3055Z" fill="#3E54EB" fill-opacity="0.2"/>
<path d="M134.115 58.2201C134.115 60.5169 135.977 62.3788 138.273 62.3788C140.57 62.3788 142.432 60.5169 142.432 58.2201C142.432 55.9234 140.57 54.0615 138.273 54.0615C135.977 54.0615 134.115 55.9234 134.115 58.2201Z" fill="#3E54EB" fill-opacity="0.2"/>
<path d="M153.349 58.2201C153.349 60.5169 155.211 62.3788 157.507 62.3788C159.804 62.3788 161.666 60.5169 161.666 58.2201C161.666 55.9234 159.804 54.0615 157.507 54.0615C155.211 54.0615 153.349 55.9234 153.349 58.2201Z" fill="#3E54EB" fill-opacity="0.2"/>
<path d="M172.409 58.2201C172.409 60.5169 174.271 62.3788 176.567 62.3788C178.864 62.3788 180.726 60.5169 180.726 58.2201C180.726 55.9234 178.864 54.0615 176.567 54.0615C174.271 54.0615 172.409 55.9234 172.409 58.2201Z" fill="#3E54EB" fill-opacity="0.2"/>
<path d="M138.273 42.6253C140.526 42.6253 142.432 40.7193 142.432 38.4667C142.432 36.2141 140.526 34.3081 138.273 34.3081C136.021 34.3081 134.115 36.2141 134.115 38.4667C134.115 40.7193 136.021 42.6253 138.273 42.6253Z" fill="#3E54EB" fill-opacity="0.2"/>
<path d="M157.507 42.6253C159.76 42.6253 161.666 40.7193 161.666 38.4667C161.666 36.2141 159.76 34.3081 157.507 34.3081C155.255 34.3081 153.349 36.2141 153.349 38.4667C153.349 40.7193 155.081 42.6253 157.507 42.6253Z" fill="#3E54EB" fill-opacity="0.2"/>
<path d="M176.567 42.6253C178.82 42.6253 180.726 40.7193 180.726 38.4667C180.726 36.2141 178.82 34.3081 176.567 34.3081C174.315 34.3081 172.409 36.2141 172.409 38.4667C172.409 40.7193 174.315 42.6253 176.567 42.6253Z" fill="#3E54EB" fill-opacity="0.2"/>
<path d="M138.273 22.6986C140.526 22.6986 142.432 20.7925 142.432 18.54C142.432 16.2874 140.526 14.3813 138.273 14.3813C136.021 14.3813 134.115 16.2874 134.115 18.54C134.115 20.7925 136.021 22.6986 138.273 22.6986Z" fill="#3E54EB" fill-opacity="0.2"/>
<path d="M157.507 22.6986C159.76 22.6986 161.666 20.7925 161.666 18.54C161.666 16.2874 159.76 14.3813 157.507 14.3813C155.255 14.3813 153.349 16.2874 153.349 18.54C153.175 20.7925 155.081 22.6986 157.507 22.6986Z" fill="#3E54EB" fill-opacity="0.2"/>
<path d="M176.568 22.699C178.82 22.699 180.726 20.793 180.726 18.5404C180.726 16.2879 178.82 14.3818 176.568 14.3818C174.315 14.3818 172.409 16.2879 172.409 18.5404C172.409 20.793 174.315 22.699 176.568 22.699Z" fill="#3E54EB" fill-opacity="0.2"/>
<path d="M4.15841 93.7412C1.90583 93.7412 -0.000190092 95.6473 -0.00019021 97.8999C-0.000190328 100.152 1.90583 102.058 4.15841 102.058C6.411 102.058 8.31702 100.152 8.31702 97.8999C8.31702 95.6473 6.58427 93.7412 4.15841 93.7412Z" fill="#3E54EB" fill-opacity="0.2"/>
<path d="M23.3921 102.232C25.6446 102.232 27.5507 100.326 27.5507 98.0732C27.5507 95.8206 25.6446 93.9146 23.3921 93.9146C21.1395 93.9146 19.2335 95.8206 19.2335 98.0732C19.2335 100.326 20.9662 102.232 23.3921 102.232Z" fill="#3E54EB" fill-opacity="0.2"/>
<path d="M42.4525 102.232C44.7051 102.232 46.6111 100.326 46.6111 98.0732C46.6111 95.8206 44.7051 93.9146 42.4525 93.9146C40.1999 93.9146 38.2939 95.8206 38.2939 98.0732C38.2939 100.326 40.1999 102.232 42.4525 102.232Z" fill="#3E54EB" fill-opacity="0.2"/>
<path d="M61.6862 102.232C63.9388 102.232 65.8448 100.326 65.8448 98.0732C65.8448 95.8206 63.9388 93.9146 61.6862 93.9146C59.4337 93.9146 57.5276 95.8206 57.5276 98.0732C57.5276 100.326 59.2604 102.232 61.6862 102.232Z" fill="#3E54EB" fill-opacity="0.2"/>
<path d="M80.7464 102.232C82.999 102.232 84.905 100.326 84.905 98.0732C84.905 95.8206 82.999 93.9146 80.7464 93.9146C78.4938 93.9146 76.5878 95.8206 76.5878 98.0732C76.5878 100.326 78.4938 102.232 80.7464 102.232Z" fill="#3E54EB" fill-opacity="0.2"/>
<path d="M99.9795 102.232C102.232 102.232 104.138 100.326 104.138 98.0732C104.138 95.8206 102.232 93.9146 99.9795 93.9146C97.7269 93.9146 95.8208 95.8206 95.8208 98.0732C95.8208 100.326 97.7269 102.232 99.9795 102.232Z" fill="#3E54EB" fill-opacity="0.2"/>
<path d="M119.213 102.232C121.466 102.232 123.372 100.326 123.372 98.0732C123.372 95.8206 121.466 93.9146 119.213 93.9146C116.961 93.9146 115.055 95.8206 115.055 98.0732C114.881 100.326 116.787 102.232 119.213 102.232Z" fill="#3E54EB" fill-opacity="0.2"/>
<path d="M4.15841 82.3055C6.411 82.3055 8.31702 80.3995 8.31702 78.1469C8.31702 75.8943 6.411 73.9883 4.15841 73.9883C1.90583 73.9883 -0.000190092 75.8943 -0.00019021 78.1469C-0.000190328 80.3995 1.90583 82.3055 4.15841 82.3055Z" fill="#3E54EB" fill-opacity="0.2"/>
<path d="M23.3921 82.3055C25.6446 82.3055 27.5507 80.3995 27.5507 78.1469C27.5507 75.8943 25.6446 73.9883 23.3921 73.9883C21.1395 73.9883 19.2335 75.8943 19.2335 78.1469C19.2335 80.3995 20.9662 82.3055 23.3921 82.3055Z" fill="#3E54EB" fill-opacity="0.2"/>
<path d="M42.4525 82.3055C44.7051 82.3055 46.6111 80.3995 46.6111 78.1469C46.6111 75.8943 44.7051 73.9883 42.4525 73.9883C40.1999 73.9883 38.2939 75.8943 38.2939 78.1469C38.2939 80.3995 40.1999 82.3055 42.4525 82.3055Z" fill="#3E54EB" fill-opacity="0.2"/>
<path d="M61.6862 82.3055C63.9388 82.3055 65.8448 80.3995 65.8448 78.1469C65.8448 75.8943 63.9388 73.9883 61.6862 73.9883C59.4337 73.9883 57.5276 75.8943 57.5276 78.1469C57.5276 80.3995 59.2604 82.3055 61.6862 82.3055Z" fill="#3E54EB" fill-opacity="0.2"/>
<path d="M80.7464 82.3055C82.999 82.3055 84.905 80.3995 84.905 78.1469C84.905 75.8943 82.999 73.9883 80.7464 73.9883C78.4938 73.9883 76.5878 75.8943 76.5878 78.1469C76.5878 80.3995 78.4938 82.3055 80.7464 82.3055Z" fill="#3E54EB" fill-opacity="0.2"/>
<path d="M99.9795 82.3055C102.232 82.3055 104.138 80.3995 104.138 78.1469C104.138 75.8943 102.232 73.9883 99.9795 73.9883C97.7269 73.9883 95.8208 75.8943 95.8208 78.1469C95.8208 80.3995 97.7269 82.3055 99.9795 82.3055Z" fill="#3E54EB" fill-opacity="0.2"/>
<path d="M119.213 82.3055C121.466 82.3055 123.372 80.3995 123.372 78.1469C123.372 75.8943 121.466 73.9883 119.213 73.9883C116.961 73.9883 115.055 75.8943 115.055 78.1469C115.055 80.3995 116.787 82.3055 119.213 82.3055Z" fill="#3E54EB" fill-opacity="0.2"/>
<path d="M4.15841 62.3783C6.411 62.3783 8.31702 60.4722 8.31702 58.2196C8.31702 55.9671 6.411 54.061 4.15841 54.061C1.90583 54.061 -0.000190092 55.9671 -0.00019021 58.2196C-0.000190328 60.4722 1.90583 62.3783 4.15841 62.3783Z" fill="#3E54EB" fill-opacity="0.2"/>
<path d="M23.3921 62.3783C25.6446 62.3783 27.5507 60.4722 27.5507 58.2196C27.5507 55.9671 25.6446 54.061 23.3921 54.061C21.1395 54.061 19.2335 55.9671 19.2335 58.2196C19.2335 60.4722 20.9662 62.3783 23.3921 62.3783Z" fill="#3E54EB" fill-opacity="0.2"/>
<path d="M42.4525 62.3783C44.7051 62.3783 46.6111 60.4722 46.6111 58.2196C46.6111 55.9671 44.7051 54.061 42.4525 54.061C40.1999 54.061 38.2939 55.9671 38.2939 58.2196C38.2939 60.4722 40.1999 62.3783 42.4525 62.3783Z" fill="#3E54EB" fill-opacity="0.2"/>
<path d="M61.6862 62.3783C63.9388 62.3783 65.8448 60.4722 65.8448 58.2196C65.8448 55.9671 63.9388 54.061 61.6862 54.061C59.4337 54.061 57.5276 55.9671 57.5276 58.2196C57.5276 60.4722 59.2604 62.3783 61.6862 62.3783Z" fill="#3E54EB" fill-opacity="0.2"/>
<path d="M76.5878 58.2201C76.5878 60.5169 78.4497 62.3788 80.7464 62.3788C83.0432 62.3788 84.905 60.5169 84.905 58.2201C84.905 55.9234 83.0432 54.0615 80.7464 54.0615C78.4497 54.0615 76.5878 55.9234 76.5878 58.2201Z" fill="#3E54EB" fill-opacity="0.2"/>
<path d="M99.9795 62.3788C102.232 62.3788 104.138 60.4727 104.138 58.2201C104.138 55.9675 102.232 54.0615 99.9795 54.0615C97.7269 54.0615 95.8208 55.9675 95.8208 58.2201C95.8208 60.4727 97.7269 62.3788 99.9795 62.3788Z" fill="#3E54EB" fill-opacity="0.2"/>
<path d="M119.213 62.3788C121.466 62.3788 123.372 60.4727 123.372 58.2201C123.372 55.9675 121.466 54.0615 119.213 54.0615C116.961 54.0615 115.055 55.9675 115.055 58.2201C114.881 60.4727 116.787 62.3788 119.213 62.3788Z" fill="#3E54EB" fill-opacity="0.2"/>
<path d="M4.15841 42.6253C6.411 42.6253 8.31702 40.7193 8.31702 38.4667C8.31702 36.2141 6.411 34.3081 4.15841 34.3081C1.90583 34.3081 -0.000190092 36.2141 -0.00019021 38.4667C-0.000190328 40.7193 1.90583 42.6253 4.15841 42.6253Z" fill="#3E54EB" fill-opacity="0.2"/>
<path d="M23.3921 42.6253C25.6446 42.6253 27.5507 40.7193 27.5507 38.4667C27.5507 36.2141 25.6446 34.3081 23.3921 34.3081C21.1395 34.3081 19.2335 36.2141 19.2335 38.4667C19.2335 40.7193 20.9662 42.6253 23.3921 42.6253Z" fill="#3E54EB" fill-opacity="0.2"/>
<path d="M42.4525 42.6253C44.7051 42.6253 46.6111 40.7193 46.6111 38.4667C46.6111 36.2141 44.7051 34.3081 42.4525 34.3081C40.1999 34.3081 38.2939 36.2141 38.2939 38.4667C38.2939 40.7193 40.1999 42.6253 42.4525 42.6253Z" fill="#3E54EB" fill-opacity="0.2"/>
<path d="M61.6862 42.6253C63.9388 42.6253 65.8448 40.7193 65.8448 38.4667C65.8448 36.2141 63.9388 34.3081 61.6862 34.3081C59.4337 34.3081 57.5276 36.2141 57.5276 38.4667C57.5276 40.7193 59.2604 42.6253 61.6862 42.6253Z" fill="#3E54EB" fill-opacity="0.2"/>
<path d="M80.7464 42.6253C82.999 42.6253 84.905 40.7193 84.905 38.4667C84.905 36.2141 82.999 34.3081 80.7464 34.3081C78.4938 34.3081 76.5878 36.2141 76.5878 38.4667C76.5878 40.7193 78.4938 42.6253 80.7464 42.6253Z" fill="#3E54EB" fill-opacity="0.2"/>
<path d="M99.9795 42.6253C102.232 42.6253 104.138 40.7193 104.138 38.4667C104.138 36.2141 102.232 34.3081 99.9795 34.3081C97.7269 34.3081 95.8208 36.2141 95.8208 38.4667C95.8208 40.7193 97.7269 42.6253 99.9795 42.6253Z" fill="#3E54EB" fill-opacity="0.2"/>
<path d="M119.213 42.6253C121.466 42.6253 123.372 40.7193 123.372 38.4667C123.372 36.2141 121.466 34.3081 119.213 34.3081C116.961 34.3081 115.055 36.2141 115.055 38.4667C115.055 40.7193 116.787 42.6253 119.213 42.6253Z" fill="#3E54EB" fill-opacity="0.2"/>
<path d="M4.15841 22.6986C6.411 22.6986 8.31702 20.7925 8.31702 18.54C8.31702 16.2874 6.411 14.3813 4.15841 14.3813C1.90583 14.3813 -0.000190092 16.2874 -0.00019021 18.54C-0.000190328 20.7925 1.90583 22.6986 4.15841 22.6986Z" fill="#3E54EB" fill-opacity="0.2"/>
<path d="M23.3922 22.6986C25.6448 22.6986 27.5508 20.7925 27.5508 18.54C27.5508 16.2874 25.6448 14.3813 23.3922 14.3813C21.1396 14.3813 19.2336 16.2874 19.2336 18.54C19.2336 20.7925 20.9663 22.6986 23.3922 22.6986Z" fill="#3E54EB" fill-opacity="0.2"/>
<path d="M42.4525 22.6986C44.7051 22.6986 46.6111 20.7925 46.6111 18.54C46.6111 16.2874 44.7051 14.3813 42.4525 14.3813C40.1999 14.3813 38.2939 16.2874 38.2939 18.54C38.2939 20.7925 40.1999 22.6986 42.4525 22.6986Z" fill="#3E54EB" fill-opacity="0.2"/>
<path d="M61.6862 22.6986C63.9388 22.6986 65.8448 20.7925 65.8448 18.54C65.8448 16.2874 63.9388 14.3813 61.6862 14.3813C59.4337 14.3813 57.5276 16.2874 57.5276 18.54C57.5276 20.7925 59.2604 22.6986 61.6862 22.6986Z" fill="#3E54EB" fill-opacity="0.2"/>
<path d="M80.7464 22.6986C82.999 22.6986 84.905 20.7925 84.905 18.54C84.905 16.2874 82.999 14.3813 80.7464 14.3813C78.4938 14.3813 76.5878 16.2874 76.5878 18.54C76.5878 20.7925 78.4938 22.6986 80.7464 22.6986Z" fill="#3E54EB" fill-opacity="0.2"/>
<path d="M99.9795 22.6986C102.232 22.6986 104.138 20.7925 104.138 18.54C104.138 16.2874 102.232 14.3813 99.9795 14.3813C97.7269 14.3813 95.8208 16.2874 95.8208 18.54C95.8208 20.7925 97.7269 22.6986 99.9795 22.6986Z" fill="#3E54EB" fill-opacity="0.2"/>
<path d="M119.213 22.6986C121.466 22.6986 123.372 20.7925 123.372 18.54C123.372 16.2874 121.466 14.3813 119.213 14.3813C116.961 14.3813 115.055 16.2874 115.055 18.54C114.881 20.7925 116.787 22.6986 119.213 22.6986Z" fill="#3E54EB" fill-opacity="0.2"/>
<path d="M158.547 87.6771C160.8 87.6771 162.706 85.771 162.706 83.5185C162.706 81.2659 160.8 79.3599 158.547 79.3599C156.295 79.3599 154.389 81.2659 154.389 83.5185C154.389 85.771 156.295 87.6771 158.547 87.6771Z" fill="#3E54EB"/>
<path d="M177.781 87.6771C180.034 87.6771 181.94 85.771 181.94 83.5185C181.94 81.2659 180.034 79.3599 177.781 79.3599C175.528 79.3599 173.622 81.2659 173.622 83.5185C173.622 85.771 175.355 87.6771 177.781 87.6771Z" fill="#3E54EB"/>
<path d="M196.841 87.6771C199.094 87.6771 201 85.771 201 83.5185C201 81.2659 199.094 79.3599 196.841 79.3599C194.589 79.3599 192.683 81.2659 192.683 83.5185C192.683 85.771 194.589 87.6771 196.841 87.6771Z" fill="#3E54EB"/>
<path d="M158.547 67.7503C160.8 67.7503 162.706 65.8443 162.706 63.5917C162.706 61.3391 160.8 59.4331 158.547 59.4331C156.295 59.4331 154.389 61.3391 154.389 63.5917C154.389 65.8443 156.295 67.7503 158.547 67.7503Z" fill="#3E54EB"/>
<path d="M177.781 67.7503C180.034 67.7503 181.94 65.8443 181.94 63.5917C181.94 61.3391 180.034 59.4331 177.781 59.4331C175.528 59.4331 173.622 61.3391 173.622 63.5917C173.622 65.8443 175.355 67.7503 177.781 67.7503Z" fill="#3E54EB"/>
<path d="M196.841 67.7503C199.094 67.7503 201 65.8443 201 63.5917C201 61.3391 199.094 59.4331 196.841 59.4331C194.589 59.4331 192.683 61.3391 192.683 63.5917C192.683 65.8443 194.589 67.7503 196.841 67.7503Z" fill="#3E54EB"/>
<path d="M158.547 47.9974C160.8 47.9974 162.706 46.0914 162.706 43.8388C162.706 41.5862 160.8 39.6802 158.547 39.6802C156.295 39.6802 154.389 41.5862 154.389 43.8388C154.389 46.0914 156.295 47.9974 158.547 47.9974Z" fill="#3E54EB"/>
<path d="M177.781 47.9974C180.034 47.9974 181.94 46.0914 181.94 43.8388C181.94 41.5862 180.034 39.6802 177.781 39.6802C175.528 39.6802 173.622 41.5862 173.622 43.8388C173.622 46.0914 175.355 47.9974 177.781 47.9974Z" fill="#3E54EB"/>
<path d="M196.841 47.9974C199.094 47.9974 201 46.0914 201 43.8388C201 41.5862 199.094 39.6802 196.841 39.6802C194.589 39.6802 192.683 41.5862 192.683 43.8388C192.683 46.0914 194.589 47.9974 196.841 47.9974Z" fill="#3E54EB"/>
<path d="M158.547 28.0706C160.8 28.0706 162.706 26.1646 162.706 23.912C162.706 21.6594 160.8 19.7534 158.547 19.7534C156.295 19.7534 154.389 21.6594 154.389 23.912C154.389 26.1646 156.295 28.0706 158.547 28.0706Z" fill="#3E54EB"/>
<path d="M177.781 28.0706C180.034 28.0706 181.94 26.1646 181.94 23.912C181.94 21.6594 180.034 19.7534 177.781 19.7534C175.528 19.7534 173.622 21.6594 173.622 23.912C173.622 26.1646 175.355 28.0706 177.781 28.0706Z" fill="#3E54EB"/>
<path d="M196.841 28.0706C199.094 28.0706 201 26.1646 201 23.912C201 21.6594 199.094 19.7534 196.841 19.7534C194.589 19.7534 192.683 21.6594 192.683 23.912C192.683 26.1646 194.589 28.0706 196.841 28.0706Z" fill="#3E54EB"/>
<path d="M158.547 8.31721C160.8 8.31721 162.706 6.41119 162.706 4.1586C162.706 1.90602 160.8 -6.94082e-08 158.547 -1.51437e-07C156.295 -2.33465e-07 154.389 1.90602 154.389 4.1586C154.389 6.41119 156.295 8.31721 158.547 8.31721Z" fill="#3E54EB"/>
<path d="M177.781 8.31721C180.034 8.31721 181.94 6.41119 181.94 4.1586C181.94 1.90602 180.034 -6.94082e-08 177.781 -1.51437e-07C175.528 -2.33465e-07 173.622 1.90602 173.622 4.1586C173.622 6.41119 175.355 8.31721 177.781 8.31721Z" fill="#3E54EB"/>
<path d="M196.841 8.31721C199.094 8.31721 201 6.41119 201 4.1586C201 1.90602 199.094 -6.94082e-08 196.841 -1.51437e-07C194.589 -2.33465e-07 192.683 1.90602 192.683 4.1586C192.683 6.41119 194.589 8.31721 196.841 8.31721Z" fill="#3E54EB"/>
<path d="M24.4322 79.1875C22.1796 79.1875 20.2736 81.0935 20.2736 83.3461C20.2736 85.5987 22.1796 87.5048 24.4322 87.5048C26.6848 87.5048 28.5908 85.5987 28.5908 83.3461C28.5908 81.0935 26.8581 79.1875 24.4322 79.1875Z" fill="#3E54EB"/>
<path d="M39.5073 83.5185C39.5073 85.8152 41.3692 87.6771 43.666 87.6771C45.9627 87.6771 47.8246 85.8152 47.8246 83.5185C47.8246 81.2217 45.9627 79.3599 43.666 79.3599C41.3692 79.3599 39.5073 81.2217 39.5073 83.5185Z" fill="#3E54EB"/>
<path d="M62.7262 87.6771C64.9787 87.6771 66.8848 85.771 66.8848 83.5185C66.8848 81.2659 64.9787 79.3599 62.7262 79.3599C60.4736 79.3599 58.5675 81.2659 58.5675 83.5185C58.5675 85.771 60.4736 87.6771 62.7262 87.6771Z" fill="#3E54EB"/>
<path d="M77.8013 83.5185C77.8013 85.8152 79.6631 87.6771 81.9599 87.6771C84.2566 87.6771 86.1185 85.8152 86.1185 83.5185C86.1185 81.2217 84.2566 79.3599 81.9599 79.3599C79.6631 79.3599 77.8013 81.2217 77.8013 83.5185Z" fill="#3E54EB"/>
<path d="M97.0342 83.5185C97.0342 85.8152 98.8961 87.6771 101.193 87.6771C103.49 87.6771 105.351 85.8152 105.351 83.5185C105.351 81.2217 103.49 79.3599 101.193 79.3599C98.8961 79.3599 97.0342 81.2217 97.0342 83.5185Z" fill="#3E54EB"/>
<path d="M120.253 87.6771C122.506 87.6771 124.412 85.771 124.412 83.5185C124.412 81.2659 122.506 79.3599 120.253 79.3599C118.001 79.3599 116.095 81.2659 116.095 83.5185C116.095 85.771 118.001 87.6771 120.253 87.6771Z" fill="#3E54EB"/>
<path d="M135.328 83.5185C135.328 85.8152 137.19 87.6771 139.487 87.6771C141.784 87.6771 143.646 85.8152 143.646 83.5185C143.646 81.2217 141.784 79.3599 139.487 79.3599C137.19 79.3599 135.328 81.2217 135.328 83.5185Z" fill="#3E54EB"/>
<path d="M24.4322 67.7503C26.6848 67.7503 28.5908 65.8443 28.5908 63.5917C28.5908 61.3391 26.6848 59.4331 24.4322 59.4331C22.1796 59.4331 20.2736 61.3391 20.2736 63.5917C20.2736 65.8443 22.1796 67.7503 24.4322 67.7503Z" fill="#3E54EB"/>
<path d="M39.5073 63.5917C39.5073 65.8884 41.3692 67.7503 43.666 67.7503C45.9627 67.7503 47.8246 65.8884 47.8246 63.5917C47.8246 61.295 45.9627 59.4331 43.666 59.4331C41.3692 59.4331 39.5073 61.295 39.5073 63.5917Z" fill="#3E54EB"/>
<path d="M62.7262 67.7503C64.9787 67.7503 66.8848 65.8443 66.8848 63.5917C66.8848 61.3391 64.9787 59.4331 62.7262 59.4331C60.4736 59.4331 58.5675 61.3391 58.5675 63.5917C58.5675 65.8443 60.4736 67.7503 62.7262 67.7503Z" fill="#3E54EB"/>
<path d="M77.8013 63.5917C77.8013 65.8884 79.6631 67.7503 81.9599 67.7503C84.2566 67.7503 86.1185 65.8884 86.1185 63.5917C86.1185 61.295 84.2566 59.4331 81.9599 59.4331C79.6631 59.4331 77.8013 61.295 77.8013 63.5917Z" fill="#3E54EB"/>
<path d="M97.0342 63.5917C97.0342 65.8884 98.8961 67.7503 101.193 67.7503C103.49 67.7503 105.351 65.8884 105.351 63.5917C105.351 61.295 103.49 59.4331 101.193 59.4331C98.8961 59.4331 97.0342 61.295 97.0342 63.5917Z" fill="#3E54EB"/>
<path d="M120.253 67.7503C122.506 67.7503 124.412 65.8443 124.412 63.5917C124.412 61.3391 122.506 59.4331 120.253 59.4331C118.001 59.4331 116.095 61.3391 116.095 63.5917C116.095 65.8443 118.001 67.7503 120.253 67.7503Z" fill="#3E54EB"/>
<path d="M135.328 63.5917C135.328 65.8884 137.19 67.7503 139.487 67.7503C141.784 67.7503 143.646 65.8884 143.646 63.5917C143.646 61.295 141.784 59.4331 139.487 59.4331C137.19 59.4331 135.328 61.295 135.328 63.5917Z" fill="#3E54EB"/>
<path d="M24.4322 47.9974C26.6848 47.9974 28.5908 46.0914 28.5908 43.8388C28.5908 41.5862 26.6848 39.6802 24.4322 39.6802C22.1796 39.6802 20.2736 41.5862 20.2736 43.8388C20.2736 46.0914 22.1796 47.9974 24.4322 47.9974Z" fill="#3E54EB"/>
<path d="M43.666 47.9974C45.9186 47.9974 47.8246 46.0914 47.8246 43.8388C47.8246 41.5862 45.9186 39.6802 43.666 39.6802C41.4134 39.6802 39.5073 41.5862 39.5073 43.8388C39.5073 46.0914 41.2401 47.9974 43.666 47.9974Z" fill="#3E54EB"/>
<path d="M62.7262 47.9974C64.9787 47.9974 66.8848 46.0914 66.8848 43.8388C66.8848 41.5862 64.9787 39.6802 62.7262 39.6802C60.4736 39.6802 58.5675 41.5862 58.5675 43.8388C58.5675 46.0914 60.4736 47.9974 62.7262 47.9974Z" fill="#3E54EB"/>
<path d="M81.9599 47.9974C84.2125 47.9974 86.1185 46.0914 86.1185 43.8388C86.1185 41.5862 84.2125 39.6802 81.9599 39.6802C79.7073 39.6802 77.8013 41.5862 77.8013 43.8388C77.8013 46.0914 79.7073 47.9974 81.9599 47.9974Z" fill="#3E54EB"/>
<path d="M101.193 47.9974C103.445 47.9974 105.351 46.0914 105.351 43.8388C105.351 41.5862 103.445 39.6802 101.193 39.6802C98.9403 39.6802 97.0342 41.5862 97.0342 43.8388C96.861 46.0914 98.767 47.9974 101.193 47.9974Z" fill="#3E54EB"/>
<path d="M120.253 47.9974C122.506 47.9974 124.412 46.0914 124.412 43.8388C124.412 41.5862 122.506 39.6802 120.253 39.6802C118.001 39.6802 116.095 41.5862 116.095 43.8388C116.095 46.0914 118.001 47.9974 120.253 47.9974Z" fill="#3E54EB"/>
<path d="M139.487 47.9974C141.74 47.9974 143.646 46.0914 143.646 43.8388C143.646 41.5862 141.74 39.6802 139.487 39.6802C137.234 39.6802 135.328 41.5862 135.328 43.8388C135.155 46.0914 137.061 47.9974 139.487 47.9974Z" fill="#3E54EB"/>
<path d="M24.4322 28.0706C26.6848 28.0706 28.5908 26.1646 28.5908 23.912C28.5908 21.6594 26.6848 19.7534 24.4322 19.7534C22.1796 19.7534 20.2736 21.6594 20.2736 23.912C20.2736 26.1646 22.1796 28.0706 24.4322 28.0706Z" fill="#3E54EB"/>
<path d="M43.666 28.0706C45.9186 28.0706 47.8246 26.1646 47.8246 23.912C47.8246 21.6594 45.9186 19.7534 43.666 19.7534C41.4134 19.7534 39.5073 21.6594 39.5073 23.912C39.5073 26.1646 41.2401 28.0706 43.666 28.0706Z" fill="#3E54EB"/>
<path d="M62.7262 28.0706C64.9787 28.0706 66.8848 26.1646 66.8848 23.912C66.8848 21.6594 64.9787 19.7534 62.7262 19.7534C60.4736 19.7534 58.5675 21.6594 58.5675 23.912C58.5675 26.1646 60.4736 28.0706 62.7262 28.0706Z" fill="#3E54EB"/>
<path d="M81.9599 28.0706C84.2125 28.0706 86.1185 26.1646 86.1185 23.912C86.1185 21.6594 84.2125 19.7534 81.9599 19.7534C79.7073 19.7534 77.8013 21.6594 77.8013 23.912C77.8013 26.1646 79.7073 28.0706 81.9599 28.0706Z" fill="#3E54EB"/>
<path d="M101.193 28.0706C103.445 28.0706 105.351 26.1646 105.351 23.912C105.351 21.6594 103.445 19.7534 101.193 19.7534C98.9403 19.7534 97.0342 21.6594 97.0342 23.912C96.861 26.1646 98.767 28.0706 101.193 28.0706Z" fill="#3E54EB"/>
<path d="M120.253 28.0706C122.506 28.0706 124.412 26.1646 124.412 23.912C124.412 21.6594 122.506 19.7534 120.253 19.7534C118.001 19.7534 116.095 21.6594 116.095 23.912C116.095 26.1646 118.001 28.0706 120.253 28.0706Z" fill="#3E54EB"/>
<path d="M139.487 28.0706C141.74 28.0706 143.646 26.1646 143.646 23.912C143.646 21.6594 141.74 19.7534 139.487 19.7534C137.234 19.7534 135.328 21.6594 135.328 23.912C135.155 26.1646 137.061 28.0706 139.487 28.0706Z" fill="#3E54EB"/>
<path d="M24.4322 8.31721C26.6848 8.31721 28.5908 6.41119 28.5908 4.1586C28.5908 1.90602 26.6848 -6.94082e-08 24.4322 -1.51437e-07C22.1796 -2.33465e-07 20.2736 1.90602 20.2736 4.1586C20.2736 6.41119 22.1796 8.31721 24.4322 8.31721Z" fill="#3E54EB"/>
<path d="M43.666 8.31721C45.9186 8.31721 47.8246 6.41119 47.8246 4.1586C47.8246 1.90602 45.9186 -6.94082e-08 43.666 -1.51437e-07C41.4134 -2.33465e-07 39.5073 1.90602 39.5073 4.1586C39.5073 6.41119 41.2401 8.31721 43.666 8.31721Z" fill="#3E54EB"/>
<path d="M62.7262 8.31721C64.9787 8.31721 66.8848 6.41119 66.8848 4.1586C66.8848 1.90602 64.9787 -6.94082e-08 62.7262 -1.51437e-07C60.4736 -2.33465e-07 58.5675 1.90602 58.5675 4.1586C58.5675 6.41119 60.4736 8.31721 62.7262 8.31721Z" fill="#3E54EB"/>
<path d="M81.9599 8.31721C84.2125 8.31721 86.1185 6.41119 86.1185 4.1586C86.1185 1.90602 84.2125 -6.94102e-08 81.9599 -1.51439e-07C79.7073 -2.33467e-07 77.8013 1.90602 77.8013 4.1586C77.8013 6.41119 79.7073 8.31721 81.9599 8.31721Z" fill="#3E54EB"/>
<path d="M101.193 8.31721C103.445 8.31721 105.351 6.41119 105.351 4.1586C105.351 1.90602 103.445 -6.94082e-08 101.193 -1.51437e-07C98.9403 -2.33465e-07 97.0342 1.90602 97.0342 4.1586C97.0342 6.41119 98.767 8.31721 101.193 8.31721Z" fill="#3E54EB"/>
<path d="M120.253 8.31721C122.506 8.31721 124.412 6.41119 124.412 4.1586C124.412 1.90602 122.506 -6.94082e-08 120.253 -1.51437e-07C118.001 -2.33465e-07 116.095 1.90602 116.095 4.1586C116.095 6.41119 118.001 8.31721 120.253 8.31721Z" fill="#3E54EB"/>
<path d="M139.487 8.31721C141.74 8.31721 143.646 6.41119 143.646 4.1586C143.646 1.90602 141.74 -6.94082e-08 139.487 -1.51437e-07C137.234 -2.33465e-07 135.328 1.90602 135.328 4.1586C135.328 6.41119 137.061 8.31721 139.487 8.31721Z" fill="#3E54EB"/>
</svg>
