<svg width="103" height="201" viewBox="0 0 103 201" fill="none" xmlns="http://www.w3.org/2000/svg">
<path d="M102.232 62.7265C102.232 60.4739 100.326 58.5678 98.0734 58.5678C95.8208 58.5678 93.9148 60.4739 93.9148 62.7265C93.9148 64.979 95.8208 66.8851 98.0734 66.8851C100.326 66.8851 102.232 64.979 102.232 62.7265Z" fill="#3E54EB" fill-opacity="0.2"/>
<path d="M102.232 43.4927C102.232 41.2401 100.326 39.3341 98.0734 39.3341C95.8208 39.3341 93.9148 41.2401 93.9148 43.4927C93.9148 45.7453 95.8208 47.6513 98.0734 47.6513C100.326 47.8246 102.232 45.9186 102.232 43.4927Z" fill="#3E54EB" fill-opacity="0.2"/>
<path d="M102.232 24.4325C102.232 22.1799 100.326 20.2739 98.0734 20.2739C95.8208 20.2739 93.9148 22.1799 93.9148 24.4325C93.9148 26.6851 95.8208 28.5911 98.0734 28.5911C100.326 28.5911 102.232 26.6851 102.232 24.4325Z" fill="#3E54EB" fill-opacity="0.2"/>
<path d="M82.3054 62.7265C82.3054 60.4739 80.3993 58.5678 78.1468 58.5678C75.8942 58.5678 73.9882 60.4739 73.9882 62.7265C73.9882 64.979 75.8942 66.8851 78.1468 66.8851C80.3993 66.8851 82.3054 64.979 82.3054 62.7265Z" fill="#3E54EB" fill-opacity="0.2"/>
<path d="M82.3054 43.4927C82.3054 41.2401 80.3993 39.3341 78.1468 39.3341C75.8942 39.3341 73.9882 41.2401 73.9882 43.4927C73.9882 45.7453 75.8942 47.6513 78.1468 47.6513C80.3993 47.6513 82.3054 45.9186 82.3054 43.4927Z" fill="#3E54EB" fill-opacity="0.2"/>
<path d="M82.3054 24.4325C82.3054 22.1799 80.3993 20.2739 78.1468 20.2739C75.8942 20.2739 73.9882 22.1799 73.9882 24.4325C73.9882 26.6851 75.8942 28.5911 78.1468 28.5911C80.3993 28.5911 82.3054 26.6851 82.3054 24.4325Z" fill="#3E54EB" fill-opacity="0.2"/>
<path d="M58.2199 66.8851C60.5166 66.8851 62.3785 65.0232 62.3785 62.7265C62.3785 60.4297 60.5166 58.5678 58.2199 58.5678C55.9231 58.5678 54.0613 60.4297 54.0613 62.7265C54.0613 65.0232 55.9231 66.8851 58.2199 66.8851Z" fill="#3E54EB" fill-opacity="0.2"/>
<path d="M58.2199 47.6513C60.5166 47.6513 62.3785 45.7894 62.3785 43.4927C62.3785 41.196 60.5166 39.3341 58.2199 39.3341C55.9231 39.3341 54.0613 41.196 54.0613 43.4927C54.0613 45.7894 55.9231 47.6513 58.2199 47.6513Z" fill="#3E54EB" fill-opacity="0.2"/>
<path d="M58.2199 28.5911C60.5166 28.5911 62.3785 26.7292 62.3785 24.4325C62.3785 22.1357 60.5166 20.2739 58.2199 20.2739C55.9231 20.2739 54.0613 22.1357 54.0613 24.4325C54.0613 26.7292 55.9231 28.5911 58.2199 28.5911Z" fill="#3E54EB" fill-opacity="0.2"/>
<path d="M42.6254 62.7265C42.6254 60.4739 40.7194 58.5678 38.4668 58.5678C36.2142 58.5678 34.3082 60.4739 34.3082 62.7265C34.3082 64.979 36.2142 66.8851 38.4668 66.8851C40.7194 66.8851 42.6254 64.979 42.6254 62.7265Z" fill="#3E54EB" fill-opacity="0.2"/>
<path d="M42.6254 43.4927C42.6254 41.2401 40.7194 39.3341 38.4668 39.3341C36.2142 39.3341 34.3082 41.2401 34.3082 43.4927C34.3082 45.7453 36.2142 47.6513 38.4668 47.6513C40.7194 47.6513 42.6254 45.9186 42.6254 43.4927Z" fill="#3E54EB" fill-opacity="0.2"/>
<path d="M42.6254 24.4325C42.6254 22.1799 40.7194 20.2739 38.4668 20.2739C36.2142 20.2739 34.3082 22.1799 34.3082 24.4325C34.3082 26.6851 36.2142 28.5911 38.4668 28.5911C40.7194 28.5911 42.6254 26.6851 42.6254 24.4325Z" fill="#3E54EB" fill-opacity="0.2"/>
<path d="M22.6986 62.7265C22.6986 60.4739 20.7925 58.5678 18.54 58.5678C16.2874 58.5678 14.3813 60.4739 14.3813 62.7265C14.3813 64.979 16.2874 66.8851 18.54 66.8851C20.7925 66.8851 22.6986 64.979 22.6986 62.7265Z" fill="#3E54EB" fill-opacity="0.2"/>
<path d="M22.6986 43.4927C22.6986 41.2401 20.7925 39.3341 18.54 39.3341C16.2874 39.3341 14.3813 41.2401 14.3813 43.4927C14.3813 45.7453 16.2874 47.6513 18.54 47.6513C20.7925 47.8246 22.6986 45.9186 22.6986 43.4927Z" fill="#3E54EB" fill-opacity="0.2"/>
<path d="M22.6988 24.4323C22.6988 22.1797 20.7928 20.2737 18.5402 20.2737C16.2876 20.2737 14.3816 22.1797 14.3816 24.4323C14.3816 26.6849 16.2876 28.5909 18.5402 28.5909C20.7928 28.5909 22.6988 26.6849 22.6988 24.4323Z" fill="#3E54EB" fill-opacity="0.2"/>
<path d="M93.7412 196.842C93.7412 199.094 95.6473 201 97.8999 201C100.152 201 102.058 199.094 102.058 196.842C102.058 194.589 100.152 192.683 97.8999 192.683C95.6473 192.683 93.7412 194.416 93.7412 196.842Z" fill="#3E54EB" fill-opacity="0.2"/>
<path d="M102.232 177.608C102.232 175.355 100.326 173.449 98.0734 173.449C95.8208 173.449 93.9148 175.355 93.9148 177.608C93.9148 179.86 95.8208 181.766 98.0734 181.766C100.326 181.766 102.232 180.034 102.232 177.608Z" fill="#3E54EB" fill-opacity="0.2"/>
<path d="M102.232 158.547C102.232 156.295 100.326 154.389 98.0734 154.389C95.8208 154.389 93.9148 156.295 93.9148 158.547C93.9148 160.8 95.8208 162.706 98.0734 162.706C100.326 162.706 102.232 160.8 102.232 158.547Z" fill="#3E54EB" fill-opacity="0.2"/>
<path d="M102.232 139.314C102.232 137.061 100.326 135.155 98.0734 135.155C95.8208 135.155 93.9148 137.061 93.9148 139.314C93.9148 141.566 95.8208 143.472 98.0734 143.472C100.326 143.472 102.232 141.74 102.232 139.314Z" fill="#3E54EB" fill-opacity="0.2"/>
<path d="M102.232 120.254C102.232 118.001 100.326 116.095 98.0734 116.095C95.8208 116.095 93.9148 118.001 93.9148 120.254C93.9148 122.506 95.8208 124.412 98.0734 124.412C100.326 124.412 102.232 122.506 102.232 120.254Z" fill="#3E54EB" fill-opacity="0.2"/>
<path d="M102.232 101.021C102.232 98.768 100.326 96.8619 98.0734 96.8619C95.8208 96.8619 93.9148 98.768 93.9148 101.021C93.9148 103.273 95.8208 105.179 98.0734 105.179C100.326 105.179 102.232 103.273 102.232 101.021Z" fill="#3E54EB" fill-opacity="0.2"/>
<path d="M102.232 81.7869C102.232 79.5343 100.326 77.6282 98.0734 77.6282C95.8208 77.6282 93.9148 79.5343 93.9148 81.7869C93.9148 84.0395 95.8208 85.9455 98.0734 85.9455C100.326 86.1188 102.232 84.2127 102.232 81.7869Z" fill="#3E54EB" fill-opacity="0.2"/>
<path d="M82.3054 196.842C82.3054 194.589 80.3993 192.683 78.1468 192.683C75.8942 192.683 73.9882 194.589 73.9882 196.842C73.9882 199.094 75.8942 201 78.1468 201C80.3993 201 82.3054 199.094 82.3054 196.842Z" fill="#3E54EB" fill-opacity="0.2"/>
<path d="M82.3054 177.608C82.3054 175.355 80.3993 173.449 78.1468 173.449C75.8942 173.449 73.9882 175.355 73.9882 177.608C73.9882 179.86 75.8942 181.766 78.1468 181.766C80.3993 181.766 82.3054 180.034 82.3054 177.608Z" fill="#3E54EB" fill-opacity="0.2"/>
<path d="M82.3054 158.547C82.3054 156.295 80.3993 154.389 78.1468 154.389C75.8942 154.389 73.9882 156.295 73.9882 158.547C73.9882 160.8 75.8942 162.706 78.1468 162.706C80.3993 162.706 82.3054 160.8 82.3054 158.547Z" fill="#3E54EB" fill-opacity="0.2"/>
<path d="M82.3054 139.314C82.3054 137.061 80.3993 135.155 78.1468 135.155C75.8942 135.155 73.9882 137.061 73.9882 139.314C73.9882 141.566 75.8942 143.472 78.1468 143.472C80.3993 143.472 82.3054 141.74 82.3054 139.314Z" fill="#3E54EB" fill-opacity="0.2"/>
<path d="M82.3054 120.254C82.3054 118.001 80.3993 116.095 78.1468 116.095C75.8942 116.095 73.9882 118.001 73.9882 120.254C73.9882 122.506 75.8942 124.412 78.1468 124.412C80.3993 124.412 82.3054 122.506 82.3054 120.254Z" fill="#3E54EB" fill-opacity="0.2"/>
<path d="M82.3054 101.021C82.3054 98.768 80.3993 96.8619 78.1468 96.8619C75.8942 96.8619 73.9882 98.768 73.9882 101.021C73.9882 103.273 75.8942 105.179 78.1468 105.179C80.3993 105.179 82.3054 103.273 82.3054 101.021Z" fill="#3E54EB" fill-opacity="0.2"/>
<path d="M82.3054 81.7869C82.3054 79.5343 80.3993 77.6282 78.1468 77.6282C75.8942 77.6282 73.9882 79.5343 73.9882 81.7869C73.9882 84.0395 75.8942 85.9455 78.1468 85.9455C80.3993 85.9455 82.3054 84.2127 82.3054 81.7869Z" fill="#3E54EB" fill-opacity="0.2"/>
<path d="M62.3785 196.842C62.3785 194.589 60.4725 192.683 58.2199 192.683C55.9673 192.683 54.0613 194.589 54.0613 196.842C54.0613 199.094 55.9673 201 58.2199 201C60.4725 201 62.3785 199.094 62.3785 196.842Z" fill="#3E54EB" fill-opacity="0.2"/>
<path d="M62.3785 177.608C62.3785 175.355 60.4725 173.449 58.2199 173.449C55.9673 173.449 54.0613 175.355 54.0613 177.608C54.0613 179.86 55.9673 181.766 58.2199 181.766C60.4725 181.766 62.3785 180.034 62.3785 177.608Z" fill="#3E54EB" fill-opacity="0.2"/>
<path d="M62.3785 158.547C62.3785 156.295 60.4725 154.389 58.2199 154.389C55.9673 154.389 54.0613 156.295 54.0613 158.547C54.0613 160.8 55.9673 162.706 58.2199 162.706C60.4725 162.706 62.3785 160.8 62.3785 158.547Z" fill="#3E54EB" fill-opacity="0.2"/>
<path d="M62.3785 139.314C62.3785 137.061 60.4725 135.155 58.2199 135.155C55.9673 135.155 54.0613 137.061 54.0613 139.314C54.0613 141.566 55.9673 143.472 58.2199 143.472C60.4725 143.472 62.3785 141.74 62.3785 139.314Z" fill="#3E54EB" fill-opacity="0.2"/>
<path d="M58.2199 124.412C60.5166 124.412 62.3785 122.55 62.3785 120.254C62.3785 117.957 60.5166 116.095 58.2199 116.095C55.9231 116.095 54.0613 117.957 54.0613 120.254C54.0613 122.55 55.9231 124.412 58.2199 124.412Z" fill="#3E54EB" fill-opacity="0.2"/>
<path d="M62.3785 101.021C62.3785 98.768 60.4725 96.8619 58.2199 96.8619C55.9673 96.8619 54.0613 98.768 54.0613 101.021C54.0613 103.273 55.9673 105.179 58.2199 105.179C60.4725 105.179 62.3785 103.273 62.3785 101.021Z" fill="#3E54EB" fill-opacity="0.2"/>
<path d="M62.3785 81.7869C62.3785 79.5343 60.4725 77.6282 58.2199 77.6282C55.9673 77.6282 54.0613 79.5343 54.0613 81.7869C54.0613 84.0395 55.9673 85.9455 58.2199 85.9455C60.4725 86.1188 62.3785 84.2127 62.3785 81.7869Z" fill="#3E54EB" fill-opacity="0.2"/>
<path d="M42.6254 196.842C42.6254 194.589 40.7194 192.683 38.4668 192.683C36.2142 192.683 34.3082 194.589 34.3082 196.842C34.3082 199.094 36.2142 201 38.4668 201C40.7194 201 42.6254 199.094 42.6254 196.842Z" fill="#3E54EB" fill-opacity="0.2"/>
<path d="M42.6254 177.608C42.6254 175.355 40.7194 173.449 38.4668 173.449C36.2142 173.449 34.3082 175.355 34.3082 177.608C34.3082 179.86 36.2142 181.766 38.4668 181.766C40.7194 181.766 42.6254 180.034 42.6254 177.608Z" fill="#3E54EB" fill-opacity="0.2"/>
<path d="M42.6254 158.547C42.6254 156.295 40.7194 154.389 38.4668 154.389C36.2142 154.389 34.3082 156.295 34.3082 158.547C34.3082 160.8 36.2142 162.706 38.4668 162.706C40.7194 162.706 42.6254 160.8 42.6254 158.547Z" fill="#3E54EB" fill-opacity="0.2"/>
<path d="M42.6254 139.314C42.6254 137.061 40.7194 135.155 38.4668 135.155C36.2142 135.155 34.3082 137.061 34.3082 139.314C34.3082 141.566 36.2142 143.472 38.4668 143.472C40.7194 143.472 42.6254 141.74 42.6254 139.314Z" fill="#3E54EB" fill-opacity="0.2"/>
<path d="M42.6254 120.254C42.6254 118.001 40.7194 116.095 38.4668 116.095C36.2142 116.095 34.3082 118.001 34.3082 120.254C34.3082 122.506 36.2142 124.412 38.4668 124.412C40.7194 124.412 42.6254 122.506 42.6254 120.254Z" fill="#3E54EB" fill-opacity="0.2"/>
<path d="M42.6254 101.021C42.6254 98.768 40.7194 96.8619 38.4668 96.8619C36.2142 96.8619 34.3082 98.768 34.3082 101.021C34.3082 103.273 36.2142 105.179 38.4668 105.179C40.7194 105.179 42.6254 103.273 42.6254 101.021Z" fill="#3E54EB" fill-opacity="0.2"/>
<path d="M42.6254 81.7869C42.6254 79.5343 40.7194 77.6282 38.4668 77.6282C36.2142 77.6282 34.3082 79.5343 34.3082 81.7869C34.3082 84.0395 36.2142 85.9455 38.4668 85.9455C40.7194 85.9455 42.6254 84.2127 42.6254 81.7869Z" fill="#3E54EB" fill-opacity="0.2"/>
<path d="M22.6986 196.842C22.6986 194.589 20.7925 192.683 18.54 192.683C16.2874 192.683 14.3813 194.589 14.3813 196.842C14.3813 199.094 16.2874 201 18.54 201C20.7925 201 22.6986 199.094 22.6986 196.842Z" fill="#3E54EB" fill-opacity="0.2"/>
<path d="M22.6986 177.608C22.6986 175.355 20.7925 173.449 18.54 173.449C16.2874 173.449 14.3813 175.355 14.3813 177.608C14.3813 179.86 16.2874 181.766 18.54 181.766C20.7925 181.766 22.6986 180.034 22.6986 177.608Z" fill="#3E54EB" fill-opacity="0.2"/>
<path d="M22.6986 158.547C22.6986 156.295 20.7925 154.389 18.54 154.389C16.2874 154.389 14.3813 156.295 14.3813 158.547C14.3813 160.8 16.2874 162.706 18.54 162.706C20.7925 162.706 22.6986 160.8 22.6986 158.547Z" fill="#3E54EB" fill-opacity="0.2"/>
<path d="M22.6986 139.314C22.6986 137.061 20.7925 135.155 18.54 135.155C16.2874 135.155 14.3813 137.061 14.3813 139.314C14.3813 141.566 16.2874 143.472 18.54 143.472C20.7925 143.472 22.6986 141.74 22.6986 139.314Z" fill="#3E54EB" fill-opacity="0.2"/>
<path d="M22.6986 120.254C22.6986 118.001 20.7925 116.095 18.54 116.095C16.2874 116.095 14.3813 118.001 14.3813 120.254C14.3813 122.506 16.2874 124.412 18.54 124.412C20.7925 124.412 22.6986 122.506 22.6986 120.254Z" fill="#3E54EB" fill-opacity="0.2"/>
<path d="M22.6986 101.021C22.6986 98.768 20.7925 96.8619 18.54 96.8619C16.2874 96.8619 14.3813 98.768 14.3813 101.021C14.3813 103.273 16.2874 105.179 18.54 105.179C20.7925 105.179 22.6986 103.273 22.6986 101.021Z" fill="#3E54EB" fill-opacity="0.2"/>
<path d="M22.6986 81.7869C22.6986 79.5343 20.7925 77.6282 18.54 77.6282C16.2874 77.6282 14.3813 79.5343 14.3813 81.7869C14.3813 84.0395 16.2874 85.9455 18.54 85.9455C20.7925 86.1188 22.6986 84.2127 22.6986 81.7869Z" fill="#3E54EB" fill-opacity="0.2"/>
<path d="M87.6771 42.4527C87.6771 40.2001 85.771 38.2941 83.5185 38.2941C81.2659 38.2941 79.3599 40.2001 79.3599 42.4527C79.3599 44.7053 81.2659 46.6113 83.5185 46.6113C85.771 46.6113 87.6771 44.7053 87.6771 42.4527Z" fill="#3E54EB"/>
<path d="M87.6771 23.219C87.6771 20.9664 85.771 19.0604 83.5185 19.0604C81.2659 19.0604 79.3599 20.9664 79.3599 23.219C79.3599 25.4716 81.2659 27.3776 83.5185 27.3776C85.771 27.3776 87.6771 25.6449 87.6771 23.219Z" fill="#3E54EB"/>
<path d="M87.6771 4.1586C87.6771 1.90602 85.771 0 83.5185 0C81.2659 0 79.3599 1.90602 79.3599 4.1586C79.3599 6.41119 81.2659 8.31721 83.5185 8.31721C85.771 8.31721 87.6771 6.41119 87.6771 4.1586Z" fill="#3E54EB"/>
<path d="M67.7504 42.4527C67.7504 40.2001 65.8444 38.2941 63.5918 38.2941C61.3392 38.2941 59.4332 40.2001 59.4332 42.4527C59.4332 44.7053 61.3392 46.6113 63.5918 46.6113C65.8444 46.6113 67.7504 44.7053 67.7504 42.4527Z" fill="#3E54EB"/>
<path d="M67.7504 23.219C67.7504 20.9664 65.8444 19.0604 63.5918 19.0604C61.3392 19.0604 59.4332 20.9664 59.4332 23.219C59.4332 25.4716 61.3392 27.3776 63.5918 27.3776C65.8444 27.3776 67.7504 25.6449 67.7504 23.219Z" fill="#3E54EB"/>
<path d="M67.7504 4.1586C67.7504 1.90602 65.8444 0 63.5918 0C61.3392 0 59.4332 1.90602 59.4332 4.1586C59.4332 6.41119 61.3392 8.31721 63.5918 8.31721C65.8444 8.31721 67.7504 6.41119 67.7504 4.1586Z" fill="#3E54EB"/>
<path d="M47.9971 42.4527C47.9971 40.2001 46.0911 38.2941 43.8385 38.2941C41.586 38.2941 39.6799 40.2001 39.6799 42.4527C39.6799 44.7053 41.586 46.6113 43.8385 46.6113C46.0911 46.6113 47.9971 44.7053 47.9971 42.4527Z" fill="#3E54EB"/>
<path d="M47.9971 23.219C47.9971 20.9664 46.0911 19.0604 43.8385 19.0604C41.586 19.0604 39.6799 20.9664 39.6799 23.219C39.6799 25.4716 41.586 27.3776 43.8385 27.3776C46.0911 27.3776 47.9971 25.6449 47.9971 23.219Z" fill="#3E54EB"/>
<path d="M47.9971 4.1586C47.9971 1.90602 46.0911 0 43.8385 0C41.586 0 39.6799 1.90602 39.6799 4.1586C39.6799 6.41119 41.586 8.31721 43.8385 8.31721C46.0911 8.31721 47.9971 6.41119 47.9971 4.1586Z" fill="#3E54EB"/>
<path d="M28.0705 42.4527C28.0705 40.2001 26.1645 38.2941 23.9119 38.2941C21.6593 38.2941 19.7533 40.2001 19.7533 42.4527C19.7533 44.7053 21.6593 46.6113 23.9119 46.6113C26.1645 46.6113 28.0705 44.7053 28.0705 42.4527Z" fill="#3E54EB"/>
<path d="M28.0705 23.219C28.0705 20.9664 26.1645 19.0604 23.9119 19.0604C21.6593 19.0604 19.7533 20.9664 19.7533 23.219C19.7533 25.4716 21.6593 27.3776 23.9119 27.3776C26.1645 27.3776 28.0705 25.6449 28.0705 23.219Z" fill="#3E54EB"/>
<path d="M28.0705 4.1586C28.0705 1.90602 26.1645 0 23.9119 0C21.6593 0 19.7533 1.90602 19.7533 4.1586C19.7533 6.41119 21.6593 8.31721 23.9119 8.31721C26.1645 8.31721 28.0705 6.41119 28.0705 4.1586Z" fill="#3E54EB"/>
<path d="M8.31721 42.4527C8.31721 40.2001 6.41119 38.2941 4.1586 38.2941C1.90602 38.2941 0 40.2001 0 42.4527C0 44.7053 1.90602 46.6113 4.1586 46.6113C6.41119 46.6113 8.31721 44.7053 8.31721 42.4527Z" fill="#3E54EB"/>
<path d="M8.31721 23.219C8.31721 20.9664 6.41119 19.0604 4.1586 19.0604C1.90602 19.0604 0 20.9664 0 23.219C0 25.4716 1.90602 27.3776 4.1586 27.3776C6.41119 27.3776 8.31721 25.6449 8.31721 23.219Z" fill="#3E54EB"/>
<path d="M8.31721 4.1586C8.31721 1.90602 6.41119 0 4.1586 0C1.90602 0 0 1.90602 0 4.1586C0 6.41119 1.90602 8.31721 4.1586 8.31721C6.41119 8.31721 8.31721 6.41119 8.31721 4.1586Z" fill="#3E54EB"/>
<path d="M79.1874 176.568C79.1874 178.82 81.0934 180.726 83.346 180.726C85.5986 180.726 87.5046 178.82 87.5046 176.568C87.5046 174.315 85.5986 172.409 83.346 172.409C81.0934 172.409 79.1874 174.142 79.1874 176.568Z" fill="#3E54EB"/>
<path d="M83.5185 161.493C85.8152 161.493 87.6771 159.631 87.6771 157.334C87.6771 155.037 85.8152 153.175 83.5185 153.175C81.2217 153.175 79.3599 155.037 79.3599 157.334C79.3599 159.631 81.2217 161.493 83.5185 161.493Z" fill="#3E54EB"/>
<path d="M87.6771 138.274C87.6771 136.021 85.771 134.115 83.5185 134.115C81.2659 134.115 79.3599 136.021 79.3599 138.274C79.3599 140.526 81.2659 142.432 83.5185 142.432C85.771 142.432 87.6771 140.526 87.6771 138.274Z" fill="#3E54EB"/>
<path d="M83.5185 123.199C85.8152 123.199 87.6771 121.337 87.6771 119.04C87.6771 116.743 85.8152 114.881 83.5185 114.881C81.2217 114.881 79.3599 116.743 79.3599 119.04C79.3599 121.337 81.2217 123.199 83.5185 123.199Z" fill="#3E54EB"/>
<path d="M83.5185 103.966C85.8152 103.966 87.6771 102.104 87.6771 99.8071C87.6771 97.5104 85.8152 95.6485 83.5185 95.6485C81.2217 95.6485 79.3599 97.5104 79.3599 99.8071C79.3599 102.104 81.2217 103.966 83.5185 103.966Z" fill="#3E54EB"/>
<path d="M87.6771 80.7467C87.6771 78.4941 85.771 76.5881 83.5185 76.5881C81.2659 76.5881 79.3599 78.4941 79.3599 80.7467C79.3599 82.9993 81.2659 84.9053 83.5185 84.9053C85.771 84.9053 87.6771 82.9993 87.6771 80.7467Z" fill="#3E54EB"/>
<path d="M83.5185 65.6716C85.8152 65.6716 87.6771 63.8097 87.6771 61.513C87.6771 59.2162 85.8152 57.3544 83.5185 57.3544C81.2217 57.3544 79.3599 59.2162 79.3599 61.513C79.3599 63.8097 81.2217 65.6716 83.5185 65.6716Z" fill="#3E54EB"/>
<path d="M67.7504 176.568C67.7504 174.315 65.8444 172.409 63.5918 172.409C61.3392 172.409 59.4332 174.315 59.4332 176.568C59.4332 178.82 61.3392 180.726 63.5918 180.726C65.8444 180.726 67.7504 178.82 67.7504 176.568Z" fill="#3E54EB"/>
<path d="M63.5918 161.493C65.8886 161.493 67.7504 159.631 67.7504 157.334C67.7504 155.037 65.8886 153.175 63.5918 153.175C61.2951 153.175 59.4332 155.037 59.4332 157.334C59.4332 159.631 61.2951 161.493 63.5918 161.493Z" fill="#3E54EB"/>
<path d="M67.7504 138.274C67.7504 136.021 65.8444 134.115 63.5918 134.115C61.3392 134.115 59.4332 136.021 59.4332 138.274C59.4332 140.526 61.3392 142.432 63.5918 142.432C65.8444 142.432 67.7504 140.526 67.7504 138.274Z" fill="#3E54EB"/>
<path d="M63.5918 123.199C65.8886 123.199 67.7504 121.337 67.7504 119.04C67.7504 116.743 65.8886 114.881 63.5918 114.881C61.2951 114.881 59.4332 116.743 59.4332 119.04C59.4332 121.337 61.2951 123.199 63.5918 123.199Z" fill="#3E54EB"/>
<path d="M63.5918 103.966C65.8886 103.966 67.7504 102.104 67.7504 99.8071C67.7504 97.5104 65.8886 95.6485 63.5918 95.6485C61.2951 95.6485 59.4332 97.5104 59.4332 99.8071C59.4332 102.104 61.2951 103.966 63.5918 103.966Z" fill="#3E54EB"/>
<path d="M67.7504 80.7467C67.7504 78.4941 65.8444 76.5881 63.5918 76.5881C61.3392 76.5881 59.4332 78.4941 59.4332 80.7467C59.4332 82.9993 61.3392 84.9053 63.5918 84.9053C65.8444 84.9053 67.7504 82.9993 67.7504 80.7467Z" fill="#3E54EB"/>
<path d="M63.5918 65.6716C65.8886 65.6716 67.7504 63.8097 67.7504 61.513C67.7504 59.2162 65.8886 57.3544 63.5918 57.3544C61.2951 57.3544 59.4332 59.2162 59.4332 61.513C59.4332 63.8097 61.2951 65.6716 63.5918 65.6716Z" fill="#3E54EB"/>
<path d="M47.9971 176.568C47.9971 174.315 46.0911 172.409 43.8385 172.409C41.586 172.409 39.6799 174.315 39.6799 176.568C39.6799 178.82 41.586 180.726 43.8385 180.726C46.0911 180.726 47.9971 178.82 47.9971 176.568Z" fill="#3E54EB"/>
<path d="M47.9971 157.334C47.9971 155.081 46.0911 153.175 43.8385 153.175C41.586 153.175 39.6799 155.081 39.6799 157.334C39.6799 159.587 41.586 161.493 43.8385 161.493C46.0911 161.493 47.9971 159.76 47.9971 157.334Z" fill="#3E54EB"/>
<path d="M47.9971 138.274C47.9971 136.021 46.0911 134.115 43.8385 134.115C41.586 134.115 39.6799 136.021 39.6799 138.274C39.6799 140.526 41.586 142.432 43.8385 142.432C46.0911 142.432 47.9971 140.526 47.9971 138.274Z" fill="#3E54EB"/>
<path d="M47.9971 119.04C47.9971 116.788 46.0911 114.881 43.8385 114.881C41.586 114.881 39.6799 116.788 39.6799 119.04C39.6799 121.293 41.586 123.199 43.8385 123.199C46.0911 123.199 47.9971 121.293 47.9971 119.04Z" fill="#3E54EB"/>
<path d="M47.9971 99.8071C47.9971 97.5545 46.0911 95.6485 43.8385 95.6485C41.586 95.6485 39.6799 97.5545 39.6799 99.8071C39.6799 102.06 41.586 103.966 43.8385 103.966C46.0911 104.139 47.9971 102.233 47.9971 99.8071Z" fill="#3E54EB"/>
<path d="M47.9971 80.7467C47.9971 78.4941 46.0911 76.5881 43.8385 76.5881C41.586 76.5881 39.6799 78.4941 39.6799 80.7467C39.6799 82.9993 41.586 84.9053 43.8385 84.9053C46.0911 84.9053 47.9971 82.9993 47.9971 80.7467Z" fill="#3E54EB"/>
<path d="M47.9971 61.513C47.9971 59.2604 46.0911 57.3544 43.8385 57.3544C41.586 57.3544 39.6799 59.2604 39.6799 61.513C39.6799 63.7656 41.586 65.6716 43.8385 65.6716C46.0911 65.8449 47.9971 63.9388 47.9971 61.513Z" fill="#3E54EB"/>
<path d="M28.0705 176.568C28.0705 174.315 26.1645 172.409 23.9119 172.409C21.6593 172.409 19.7533 174.315 19.7533 176.568C19.7533 178.82 21.6593 180.726 23.9119 180.726C26.1645 180.726 28.0705 178.82 28.0705 176.568Z" fill="#3E54EB"/>
<path d="M28.0705 157.334C28.0705 155.081 26.1645 153.175 23.9119 153.175C21.6593 153.175 19.7533 155.081 19.7533 157.334C19.7533 159.587 21.6593 161.493 23.9119 161.493C26.1645 161.493 28.0705 159.76 28.0705 157.334Z" fill="#3E54EB"/>
<path d="M28.0705 138.274C28.0705 136.021 26.1645 134.115 23.9119 134.115C21.6593 134.115 19.7533 136.021 19.7533 138.274C19.7533 140.526 21.6593 142.432 23.9119 142.432C26.1645 142.432 28.0705 140.526 28.0705 138.274Z" fill="#3E54EB"/>
<path d="M28.0705 119.04C28.0705 116.788 26.1645 114.881 23.9119 114.881C21.6593 114.881 19.7533 116.788 19.7533 119.04C19.7533 121.293 21.6593 123.199 23.9119 123.199C26.1645 123.199 28.0705 121.293 28.0705 119.04Z" fill="#3E54EB"/>
<path d="M28.0705 99.8071C28.0705 97.5545 26.1645 95.6485 23.9119 95.6485C21.6593 95.6485 19.7533 97.5545 19.7533 99.8071C19.7533 102.06 21.6593 103.966 23.9119 103.966C26.1645 104.139 28.0705 102.233 28.0705 99.8071Z" fill="#3E54EB"/>
<path d="M28.0705 80.7467C28.0705 78.4941 26.1645 76.5881 23.9119 76.5881C21.6593 76.5881 19.7533 78.4941 19.7533 80.7467C19.7533 82.9993 21.6593 84.9053 23.9119 84.9053C26.1645 84.9053 28.0705 82.9993 28.0705 80.7467Z" fill="#3E54EB"/>
<path d="M28.0705 61.513C28.0705 59.2604 26.1645 57.3544 23.9119 57.3544C21.6593 57.3544 19.7533 59.2604 19.7533 61.513C19.7533 63.7656 21.6593 65.6716 23.9119 65.6716C26.1645 65.8449 28.0705 63.9388 28.0705 61.513Z" fill="#3E54EB"/>
<path d="M8.31721 176.568C8.31721 174.315 6.41119 172.409 4.1586 172.409C1.90602 172.409 0 174.315 0 176.568C0 178.82 1.90602 180.726 4.1586 180.726C6.41119 180.726 8.31721 178.82 8.31721 176.568Z" fill="#3E54EB"/>
<path d="M8.31721 157.334C8.31721 155.081 6.41119 153.175 4.1586 153.175C1.90602 153.175 0 155.081 0 157.334C0 159.587 1.90602 161.493 4.1586 161.493C6.41119 161.493 8.31721 159.76 8.31721 157.334Z" fill="#3E54EB"/>
<path d="M8.31721 138.274C8.31721 136.021 6.41119 134.115 4.1586 134.115C1.90602 134.115 0 136.021 0 138.274C0 140.526 1.90602 142.432 4.1586 142.432C6.41119 142.432 8.31721 140.526 8.31721 138.274Z" fill="#3E54EB"/>
<path d="M8.31721 119.04C8.31721 116.788 6.41119 114.881 4.1586 114.881C1.90602 114.881 0 116.788 0 119.04C0 121.293 1.90602 123.199 4.1586 123.199C6.41119 123.199 8.31721 121.293 8.31721 119.04Z" fill="#3E54EB"/>
<path d="M8.31721 99.8071C8.31721 97.5545 6.41119 95.6485 4.1586 95.6485C1.90602 95.6485 0 97.5545 0 99.8071C0 102.06 1.90602 103.966 4.1586 103.966C6.41119 103.966 8.31721 102.233 8.31721 99.8071Z" fill="#3E54EB"/>
<path d="M8.31721 80.7467C8.31721 78.4941 6.41119 76.5881 4.1586 76.5881C1.90602 76.5881 0 78.4941 0 80.7467C0 82.9993 1.90602 84.9053 4.1586 84.9053C6.41119 84.9053 8.31721 82.9993 8.31721 80.7467Z" fill="#3E54EB"/>
<path d="M8.31721 61.513C8.31721 59.2604 6.41119 57.3544 4.1586 57.3544C1.90602 57.3544 0 59.2604 0 61.513C0 63.7656 1.90602 65.6716 4.1586 65.6716C6.41119 65.6716 8.31721 63.9388 8.31721 61.513Z" fill="#3E54EB"/>
</svg>
