<svg width="104" height="201" viewBox="0 0 104 201" fill="none" xmlns="http://www.w3.org/2000/svg">
<path d="M103.155 62.7264C103.155 60.4738 101.249 58.5677 98.996 58.5677C96.7434 58.5677 94.8374 60.4738 94.8374 62.7264C94.8374 64.979 96.7434 66.885 98.996 66.885C101.249 66.885 103.155 64.979 103.155 62.7264Z" fill="#3E54EB" fill-opacity="0.2"/>
<path d="M103.155 43.4926C103.155 41.24 101.249 39.334 98.996 39.334C96.7434 39.334 94.8374 41.24 94.8374 43.4926C94.8374 45.7452 96.7434 47.6512 98.996 47.6512C101.249 47.8245 103.155 45.9184 103.155 43.4926Z" fill="#3E54EB" fill-opacity="0.2"/>
<path d="M103.155 24.4325C103.155 22.1799 101.249 20.2739 98.996 20.2739C96.7434 20.2739 94.8374 22.1799 94.8374 24.4325C94.8374 26.6851 96.7434 28.5911 98.996 28.5911C101.249 28.5911 103.155 26.6851 103.155 24.4325Z" fill="#3E54EB" fill-opacity="0.2"/>
<path d="M83.2284 62.7264C83.2284 60.4738 81.3223 58.5677 79.0697 58.5677C76.8172 58.5677 74.9111 60.4738 74.9111 62.7264C74.9111 64.979 76.8172 66.885 79.0697 66.885C81.3223 66.885 83.2284 64.979 83.2284 62.7264Z" fill="#3E54EB" fill-opacity="0.2"/>
<path d="M83.2284 43.4926C83.2284 41.24 81.3223 39.334 79.0697 39.334C76.8172 39.334 74.9111 41.24 74.9111 43.4926C74.9111 45.7452 76.8172 47.6512 79.0697 47.6512C81.3223 47.6512 83.2284 45.9184 83.2284 43.4926Z" fill="#3E54EB" fill-opacity="0.2"/>
<path d="M83.2284 24.4325C83.2284 22.1799 81.3223 20.2739 79.0697 20.2739C76.8172 20.2739 74.9111 22.1799 74.9111 24.4325C74.9111 26.6851 76.8172 28.5911 79.0697 28.5911C81.3223 28.5911 83.2284 26.6851 83.2284 24.4325Z" fill="#3E54EB" fill-opacity="0.2"/>
<path d="M59.143 66.885C61.4397 66.885 63.3016 65.0231 63.3016 62.7264C63.3016 60.4297 61.4397 58.5677 59.143 58.5677C56.8462 58.5677 54.9844 60.4297 54.9844 62.7264C54.9844 65.0231 56.8462 66.885 59.143 66.885Z" fill="#3E54EB" fill-opacity="0.2"/>
<path d="M59.143 47.6512C61.4397 47.6512 63.3016 45.7893 63.3016 43.4926C63.3016 41.1958 61.4397 39.334 59.143 39.334C56.8462 39.334 54.9844 41.1958 54.9844 43.4926C54.9844 45.7893 56.8462 47.6512 59.143 47.6512Z" fill="#3E54EB" fill-opacity="0.2"/>
<path d="M59.143 28.5911C61.4397 28.5911 63.3016 26.7293 63.3016 24.4325C63.3016 22.1358 61.4397 20.2739 59.143 20.2739C56.8462 20.2739 54.9844 22.1358 54.9844 24.4325C54.9844 26.7293 56.8462 28.5911 59.143 28.5911Z" fill="#3E54EB" fill-opacity="0.2"/>
<path d="M43.5482 62.7264C43.5482 60.4738 41.6421 58.5677 39.3896 58.5677C37.137 58.5677 35.231 60.4738 35.231 62.7264C35.231 64.979 37.137 66.885 39.3896 66.885C41.6421 66.885 43.5482 64.979 43.5482 62.7264Z" fill="#3E54EB" fill-opacity="0.2"/>
<path d="M43.5482 43.4926C43.5482 41.24 41.6421 39.334 39.3896 39.334C37.137 39.334 35.231 41.24 35.231 43.4926C35.231 45.7452 37.137 47.6512 39.3896 47.6512C41.6421 47.6512 43.5482 45.9184 43.5482 43.4926Z" fill="#3E54EB" fill-opacity="0.2"/>
<path d="M43.5482 24.4325C43.5482 22.1799 41.6421 20.2739 39.3896 20.2739C37.137 20.2739 35.231 22.1799 35.231 24.4325C35.231 26.6851 37.137 28.5911 39.3896 28.5911C41.6421 28.5911 43.5482 26.6851 43.5482 24.4325Z" fill="#3E54EB" fill-opacity="0.2"/>
<path d="M23.6214 62.7264C23.6214 60.4738 21.7154 58.5677 19.4628 58.5677C17.2102 58.5677 15.3042 60.4738 15.3042 62.7264C15.3042 64.979 17.2102 66.885 19.4628 66.885C21.7154 66.885 23.6214 64.979 23.6214 62.7264Z" fill="#3E54EB" fill-opacity="0.2"/>
<path d="M23.6214 43.4926C23.6214 41.24 21.7154 39.334 19.4628 39.334C17.2102 39.334 15.3042 41.24 15.3042 43.4926C15.3042 45.7452 17.2102 47.6512 19.4628 47.6512C21.7154 47.8245 23.6214 45.9184 23.6214 43.4926Z" fill="#3E54EB" fill-opacity="0.2"/>
<path d="M23.6219 24.4323C23.6219 22.1797 21.7159 20.2737 19.4633 20.2737C17.2107 20.2737 15.3047 22.1797 15.3047 24.4323C15.3047 26.6849 17.2107 28.5909 19.4633 28.5909C21.7159 28.5909 23.6219 26.6849 23.6219 24.4323Z" fill="#3E54EB" fill-opacity="0.2"/>
<path d="M94.6641 196.842C94.6641 199.094 96.5701 201 98.8227 201C101.075 201 102.981 199.094 102.981 196.842C102.981 194.589 101.075 192.683 98.8227 192.683C96.5701 192.683 94.6641 194.416 94.6641 196.842Z" fill="#3E54EB" fill-opacity="0.2"/>
<path d="M103.155 177.608C103.155 175.355 101.249 173.449 98.996 173.449C96.7434 173.449 94.8374 175.355 94.8374 177.608C94.8374 179.86 96.7434 181.766 98.996 181.766C101.249 181.766 103.155 180.034 103.155 177.608Z" fill="#3E54EB" fill-opacity="0.2"/>
<path d="M103.155 158.548C103.155 156.295 101.249 154.389 98.996 154.389C96.7434 154.389 94.8374 156.295 94.8374 158.548C94.8374 160.8 96.7434 162.706 98.996 162.706C101.249 162.706 103.155 160.8 103.155 158.548Z" fill="#3E54EB" fill-opacity="0.2"/>
<path d="M103.155 139.314C103.155 137.061 101.249 135.155 98.996 135.155C96.7434 135.155 94.8374 137.061 94.8374 139.314C94.8374 141.566 96.7434 143.472 98.996 143.472C101.249 143.472 103.155 141.74 103.155 139.314Z" fill="#3E54EB" fill-opacity="0.2"/>
<path d="M103.155 120.254C103.155 118.001 101.249 116.095 98.996 116.095C96.7434 116.095 94.8374 118.001 94.8374 120.254C94.8374 122.506 96.7434 124.412 98.996 124.412C101.249 124.412 103.155 122.506 103.155 120.254Z" fill="#3E54EB" fill-opacity="0.2"/>
<path d="M103.155 101.021C103.155 98.768 101.249 96.8619 98.996 96.8619C96.7434 96.8619 94.8374 98.768 94.8374 101.021C94.8374 103.273 96.7434 105.179 98.996 105.179C101.249 105.179 103.155 103.273 103.155 101.021Z" fill="#3E54EB" fill-opacity="0.2"/>
<path d="M103.155 81.7868C103.155 79.5342 101.249 77.6282 98.996 77.6282C96.7434 77.6282 94.8374 79.5342 94.8374 81.7868C94.8374 84.0394 96.7434 85.9454 98.996 85.9454C101.249 86.1187 103.155 84.2127 103.155 81.7868Z" fill="#3E54EB" fill-opacity="0.2"/>
<path d="M83.2284 196.842C83.2284 194.589 81.3223 192.683 79.0697 192.683C76.8172 192.683 74.9111 194.589 74.9111 196.842C74.9111 199.094 76.8172 201 79.0697 201C81.3223 201 83.2284 199.094 83.2284 196.842Z" fill="#3E54EB" fill-opacity="0.2"/>
<path d="M83.2284 177.608C83.2284 175.355 81.3223 173.449 79.0697 173.449C76.8172 173.449 74.9111 175.355 74.9111 177.608C74.9111 179.86 76.8172 181.766 79.0697 181.766C81.3223 181.766 83.2284 180.034 83.2284 177.608Z" fill="#3E54EB" fill-opacity="0.2"/>
<path d="M83.2284 158.548C83.2284 156.295 81.3223 154.389 79.0697 154.389C76.8172 154.389 74.9111 156.295 74.9111 158.548C74.9111 160.8 76.8172 162.706 79.0697 162.706C81.3223 162.706 83.2284 160.8 83.2284 158.548Z" fill="#3E54EB" fill-opacity="0.2"/>
<path d="M83.2284 139.314C83.2284 137.061 81.3223 135.155 79.0697 135.155C76.8172 135.155 74.9111 137.061 74.9111 139.314C74.9111 141.566 76.8172 143.472 79.0697 143.472C81.3223 143.472 83.2284 141.74 83.2284 139.314Z" fill="#3E54EB" fill-opacity="0.2"/>
<path d="M83.2284 120.254C83.2284 118.001 81.3223 116.095 79.0697 116.095C76.8172 116.095 74.9111 118.001 74.9111 120.254C74.9111 122.506 76.8172 124.412 79.0697 124.412C81.3223 124.412 83.2284 122.506 83.2284 120.254Z" fill="#3E54EB" fill-opacity="0.2"/>
<path d="M83.2284 101.021C83.2284 98.768 81.3223 96.8619 79.0697 96.8619C76.8172 96.8619 74.9111 98.768 74.9111 101.021C74.9111 103.273 76.8172 105.179 79.0697 105.179C81.3223 105.179 83.2284 103.273 83.2284 101.021Z" fill="#3E54EB" fill-opacity="0.2"/>
<path d="M83.2284 81.7868C83.2284 79.5342 81.3223 77.6282 79.0697 77.6282C76.8172 77.6282 74.9111 79.5342 74.9111 81.7868C74.9111 84.0394 76.8172 85.9454 79.0697 85.9454C81.3223 85.9454 83.2284 84.2127 83.2284 81.7868Z" fill="#3E54EB" fill-opacity="0.2"/>
<path d="M63.3016 196.842C63.3016 194.589 61.3956 192.683 59.143 192.683C56.8904 192.683 54.9844 194.589 54.9844 196.842C54.9844 199.094 56.8904 201 59.143 201C61.3956 201 63.3016 199.094 63.3016 196.842Z" fill="#3E54EB" fill-opacity="0.2"/>
<path d="M63.3016 177.608C63.3016 175.355 61.3956 173.449 59.143 173.449C56.8904 173.449 54.9844 175.355 54.9844 177.608C54.9844 179.86 56.8904 181.766 59.143 181.766C61.3956 181.766 63.3016 180.034 63.3016 177.608Z" fill="#3E54EB" fill-opacity="0.2"/>
<path d="M63.3016 158.548C63.3016 156.295 61.3956 154.389 59.143 154.389C56.8904 154.389 54.9844 156.295 54.9844 158.548C54.9844 160.8 56.8904 162.706 59.143 162.706C61.3956 162.706 63.3016 160.8 63.3016 158.548Z" fill="#3E54EB" fill-opacity="0.2"/>
<path d="M63.3016 139.314C63.3016 137.061 61.3956 135.155 59.143 135.155C56.8904 135.155 54.9844 137.061 54.9844 139.314C54.9844 141.566 56.8904 143.472 59.143 143.472C61.3956 143.472 63.3016 141.74 63.3016 139.314Z" fill="#3E54EB" fill-opacity="0.2"/>
<path d="M59.143 124.412C61.4397 124.412 63.3016 122.55 63.3016 120.254C63.3016 117.957 61.4397 116.095 59.143 116.095C56.8462 116.095 54.9844 117.957 54.9844 120.254C54.9844 122.55 56.8462 124.412 59.143 124.412Z" fill="#3E54EB" fill-opacity="0.2"/>
<path d="M63.3016 101.021C63.3016 98.768 61.3956 96.8619 59.143 96.8619C56.8904 96.8619 54.9844 98.768 54.9844 101.021C54.9844 103.273 56.8904 105.179 59.143 105.179C61.3956 105.179 63.3016 103.273 63.3016 101.021Z" fill="#3E54EB" fill-opacity="0.2"/>
<path d="M63.3016 81.7868C63.3016 79.5342 61.3956 77.6282 59.143 77.6282C56.8904 77.6282 54.9844 79.5342 54.9844 81.7868C54.9844 84.0394 56.8904 85.9454 59.143 85.9454C61.3956 86.1187 63.3016 84.2127 63.3016 81.7868Z" fill="#3E54EB" fill-opacity="0.2"/>
<path d="M43.5482 196.842C43.5482 194.589 41.6421 192.683 39.3896 192.683C37.137 192.683 35.231 194.589 35.231 196.842C35.231 199.094 37.137 201 39.3896 201C41.6421 201 43.5482 199.094 43.5482 196.842Z" fill="#3E54EB" fill-opacity="0.2"/>
<path d="M43.5482 177.608C43.5482 175.355 41.6421 173.449 39.3896 173.449C37.137 173.449 35.231 175.355 35.231 177.608C35.231 179.86 37.137 181.766 39.3896 181.766C41.6421 181.766 43.5482 180.034 43.5482 177.608Z" fill="#3E54EB" fill-opacity="0.2"/>
<path d="M43.5482 158.548C43.5482 156.295 41.6421 154.389 39.3896 154.389C37.137 154.389 35.231 156.295 35.231 158.548C35.231 160.8 37.137 162.706 39.3896 162.706C41.6421 162.706 43.5482 160.8 43.5482 158.548Z" fill="#3E54EB" fill-opacity="0.2"/>
<path d="M43.5482 139.314C43.5482 137.061 41.6421 135.155 39.3896 135.155C37.137 135.155 35.231 137.061 35.231 139.314C35.231 141.566 37.137 143.472 39.3896 143.472C41.6421 143.472 43.5482 141.74 43.5482 139.314Z" fill="#3E54EB" fill-opacity="0.2"/>
<path d="M43.5482 120.254C43.5482 118.001 41.6421 116.095 39.3896 116.095C37.137 116.095 35.231 118.001 35.231 120.254C35.231 122.506 37.137 124.412 39.3896 124.412C41.6421 124.412 43.5482 122.506 43.5482 120.254Z" fill="#3E54EB" fill-opacity="0.2"/>
<path d="M43.5482 101.021C43.5482 98.768 41.6421 96.8619 39.3896 96.8619C37.137 96.8619 35.231 98.768 35.231 101.021C35.231 103.273 37.137 105.179 39.3896 105.179C41.6421 105.179 43.5482 103.273 43.5482 101.021Z" fill="#3E54EB" fill-opacity="0.2"/>
<path d="M43.5482 81.7868C43.5482 79.5342 41.6421 77.6282 39.3896 77.6282C37.137 77.6282 35.231 79.5342 35.231 81.7868C35.231 84.0394 37.137 85.9454 39.3896 85.9454C41.6421 85.9454 43.5482 84.2127 43.5482 81.7868Z" fill="#3E54EB" fill-opacity="0.2"/>
<path d="M23.6214 196.842C23.6214 194.589 21.7154 192.683 19.4628 192.683C17.2102 192.683 15.3042 194.589 15.3042 196.842C15.3042 199.094 17.2102 201 19.4628 201C21.7154 201 23.6214 199.094 23.6214 196.842Z" fill="#3E54EB" fill-opacity="0.2"/>
<path d="M23.6214 177.608C23.6214 175.355 21.7154 173.449 19.4628 173.449C17.2102 173.449 15.3042 175.355 15.3042 177.608C15.3042 179.86 17.2102 181.766 19.4628 181.766C21.7154 181.766 23.6214 180.034 23.6214 177.608Z" fill="#3E54EB" fill-opacity="0.2"/>
<path d="M23.6214 158.548C23.6214 156.295 21.7154 154.389 19.4628 154.389C17.2102 154.389 15.3042 156.295 15.3042 158.548C15.3042 160.8 17.2102 162.706 19.4628 162.706C21.7154 162.706 23.6214 160.8 23.6214 158.548Z" fill="#3E54EB" fill-opacity="0.2"/>
<path d="M23.6214 139.314C23.6214 137.061 21.7154 135.155 19.4628 135.155C17.2102 135.155 15.3042 137.061 15.3042 139.314C15.3042 141.566 17.2102 143.472 19.4628 143.472C21.7154 143.472 23.6214 141.74 23.6214 139.314Z" fill="#3E54EB" fill-opacity="0.2"/>
<path d="M23.6214 120.254C23.6214 118.001 21.7154 116.095 19.4628 116.095C17.2102 116.095 15.3042 118.001 15.3042 120.254C15.3042 122.506 17.2102 124.412 19.4628 124.412C21.7154 124.412 23.6214 122.506 23.6214 120.254Z" fill="#3E54EB" fill-opacity="0.2"/>
<path d="M23.6214 101.021C23.6214 98.768 21.7154 96.8619 19.4628 96.8619C17.2102 96.8619 15.3042 98.768 15.3042 101.021C15.3042 103.273 17.2102 105.179 19.4628 105.179C21.7154 105.179 23.6214 103.273 23.6214 101.021Z" fill="#3E54EB" fill-opacity="0.2"/>
<path d="M23.6214 81.7868C23.6214 79.5342 21.7154 77.6282 19.4628 77.6282C17.2102 77.6282 15.3042 79.5342 15.3042 81.7868C15.3042 84.0394 17.2102 85.9454 19.4628 85.9454C21.7154 86.1187 23.6214 84.2127 23.6214 81.7868Z" fill="#3E54EB" fill-opacity="0.2"/>
<path d="M88.5999 42.4528C88.5999 40.2002 86.6939 38.2942 84.4413 38.2942C82.1887 38.2942 80.2827 40.2002 80.2827 42.4528C80.2827 44.7054 82.1887 46.6114 84.4413 46.6114C86.6939 46.6114 88.5999 44.7054 88.5999 42.4528Z" fill="#3E54EB"/>
<path d="M88.5999 23.219C88.5999 20.9664 86.6939 19.0604 84.4413 19.0604C82.1887 19.0604 80.2827 20.9664 80.2827 23.219C80.2827 25.4716 82.1887 27.3776 84.4413 27.3776C86.6939 27.3776 88.5999 25.6449 88.5999 23.219Z" fill="#3E54EB"/>
<path d="M88.5999 4.1586C88.5999 1.90602 86.6939 0 84.4413 0C82.1887 0 80.2827 1.90602 80.2827 4.1586C80.2827 6.41119 82.1887 8.31721 84.4413 8.31721C86.6939 8.31721 88.5999 6.41119 88.5999 4.1586Z" fill="#3E54EB"/>
<path d="M68.6732 42.4528C68.6732 40.2002 66.7671 38.2942 64.5146 38.2942C62.262 38.2942 60.356 40.2002 60.356 42.4528C60.356 44.7054 62.262 46.6114 64.5146 46.6114C66.7671 46.6114 68.6732 44.7054 68.6732 42.4528Z" fill="#3E54EB"/>
<path d="M68.6732 23.219C68.6732 20.9664 66.7671 19.0604 64.5146 19.0604C62.262 19.0604 60.356 20.9664 60.356 23.219C60.356 25.4716 62.262 27.3776 64.5146 27.3776C66.7671 27.3776 68.6732 25.6449 68.6732 23.219Z" fill="#3E54EB"/>
<path d="M68.6732 4.1586C68.6732 1.90602 66.7671 0 64.5146 0C62.262 0 60.356 1.90602 60.356 4.1586C60.356 6.41119 62.262 8.31721 64.5146 8.31721C66.7671 8.31721 68.6732 6.41119 68.6732 4.1586Z" fill="#3E54EB"/>
<path d="M48.9202 42.4528C48.9202 40.2002 47.0142 38.2942 44.7616 38.2942C42.509 38.2942 40.603 40.2002 40.603 42.4528C40.603 44.7054 42.509 46.6114 44.7616 46.6114C47.0142 46.6114 48.9202 44.7054 48.9202 42.4528Z" fill="#3E54EB"/>
<path d="M48.9202 23.219C48.9202 20.9664 47.0142 19.0604 44.7616 19.0604C42.509 19.0604 40.603 20.9664 40.603 23.219C40.603 25.4716 42.509 27.3776 44.7616 27.3776C47.0142 27.3776 48.9202 25.6449 48.9202 23.219Z" fill="#3E54EB"/>
<path d="M48.9202 4.1586C48.9202 1.90602 47.0142 0 44.7616 0C42.509 0 40.603 1.90602 40.603 4.1586C40.603 6.41119 42.509 8.31721 44.7616 8.31721C47.0142 8.31721 48.9202 6.41119 48.9202 4.1586Z" fill="#3E54EB"/>
<path d="M28.9935 42.4528C28.9935 40.2002 27.0875 38.2942 24.8349 38.2942C22.5823 38.2942 20.6763 40.2002 20.6763 42.4528C20.6763 44.7054 22.5823 46.6114 24.8349 46.6114C27.0875 46.6114 28.9935 44.7054 28.9935 42.4528Z" fill="#3E54EB"/>
<path d="M28.9935 23.219C28.9935 20.9664 27.0875 19.0604 24.8349 19.0604C22.5823 19.0604 20.6763 20.9664 20.6763 23.219C20.6763 25.4716 22.5823 27.3776 24.8349 27.3776C27.0875 27.3776 28.9935 25.6449 28.9935 23.219Z" fill="#3E54EB"/>
<path d="M28.9935 4.1586C28.9935 1.90602 27.0875 0 24.8349 0C22.5823 0 20.6763 1.90602 20.6763 4.1586C20.6763 6.41119 22.5823 8.31721 24.8349 8.31721C27.0875 8.31721 28.9935 6.41119 28.9935 4.1586Z" fill="#3E54EB"/>
<path d="M9.24006 42.4528C9.24006 40.2002 7.33404 38.2942 5.08145 38.2942C2.82887 38.2942 0.922852 40.2002 0.922852 42.4528C0.922852 44.7054 2.82887 46.6114 5.08145 46.6114C7.33404 46.6114 9.24006 44.7054 9.24006 42.4528Z" fill="#3E54EB"/>
<path d="M9.24006 23.219C9.24006 20.9664 7.33404 19.0604 5.08145 19.0604C2.82887 19.0604 0.922852 20.9664 0.922852 23.219C0.922852 25.4716 2.82887 27.3776 5.08145 27.3776C7.33404 27.3776 9.24006 25.6449 9.24006 23.219Z" fill="#3E54EB"/>
<path d="M9.24006 4.1586C9.24006 1.90602 7.33404 0 5.08145 0C2.82887 0 0.922852 1.90602 0.922852 4.1586C0.922852 6.41119 2.82887 8.31721 5.08145 8.31721C7.33404 8.31721 9.24006 6.41119 9.24006 4.1586Z" fill="#3E54EB"/>
<path d="M80.1104 176.568C80.1104 178.82 82.0164 180.726 84.269 180.726C86.5215 180.726 88.4276 178.82 88.4276 176.568C88.4276 174.315 86.5215 172.409 84.269 172.409C82.0164 172.409 80.1104 174.142 80.1104 176.568Z" fill="#3E54EB"/>
<path d="M84.4413 161.493C86.7381 161.493 88.5999 159.631 88.5999 157.334C88.5999 155.037 86.7381 153.175 84.4413 153.175C82.1446 153.175 80.2827 155.037 80.2827 157.334C80.2827 159.631 82.1446 161.493 84.4413 161.493Z" fill="#3E54EB"/>
<path d="M88.5999 138.274C88.5999 136.021 86.6939 134.115 84.4413 134.115C82.1887 134.115 80.2827 136.021 80.2827 138.274C80.2827 140.526 82.1887 142.432 84.4413 142.432C86.6939 142.432 88.5999 140.526 88.5999 138.274Z" fill="#3E54EB"/>
<path d="M84.4413 123.199C86.7381 123.199 88.5999 121.337 88.5999 119.04C88.5999 116.743 86.7381 114.881 84.4413 114.881C82.1446 114.881 80.2827 116.743 80.2827 119.04C80.2827 121.337 82.1446 123.199 84.4413 123.199Z" fill="#3E54EB"/>
<path d="M84.4413 103.966C86.7381 103.966 88.5999 102.104 88.5999 99.807C88.5999 97.5103 86.7381 95.6484 84.4413 95.6484C82.1446 95.6484 80.2827 97.5103 80.2827 99.807C80.2827 102.104 82.1446 103.966 84.4413 103.966Z" fill="#3E54EB"/>
<path d="M88.5999 80.7467C88.5999 78.4942 86.6939 76.5881 84.4413 76.5881C82.1887 76.5881 80.2827 78.4942 80.2827 80.7467C80.2827 82.9993 82.1887 84.9053 84.4413 84.9053C86.6939 84.9053 88.5999 82.9993 88.5999 80.7467Z" fill="#3E54EB"/>
<path d="M84.4413 65.6716C86.7381 65.6716 88.5999 63.8097 88.5999 61.513C88.5999 59.2162 86.7381 57.3544 84.4413 57.3544C82.1446 57.3544 80.2827 59.2162 80.2827 61.513C80.2827 63.8097 82.1446 65.6716 84.4413 65.6716Z" fill="#3E54EB"/>
<path d="M68.6732 176.568C68.6732 174.315 66.7671 172.409 64.5146 172.409C62.262 172.409 60.356 174.315 60.356 176.568C60.356 178.82 62.262 180.726 64.5146 180.726C66.7671 180.726 68.6732 178.82 68.6732 176.568Z" fill="#3E54EB"/>
<path d="M64.5146 161.493C66.8113 161.493 68.6732 159.631 68.6732 157.334C68.6732 155.037 66.8113 153.175 64.5146 153.175C62.2178 153.175 60.356 155.037 60.356 157.334C60.356 159.631 62.2178 161.493 64.5146 161.493Z" fill="#3E54EB"/>
<path d="M68.6732 138.274C68.6732 136.021 66.7671 134.115 64.5146 134.115C62.262 134.115 60.356 136.021 60.356 138.274C60.356 140.526 62.262 142.432 64.5146 142.432C66.7671 142.432 68.6732 140.526 68.6732 138.274Z" fill="#3E54EB"/>
<path d="M64.5146 123.199C66.8113 123.199 68.6732 121.337 68.6732 119.04C68.6732 116.743 66.8113 114.881 64.5146 114.881C62.2178 114.881 60.356 116.743 60.356 119.04C60.356 121.337 62.2178 123.199 64.5146 123.199Z" fill="#3E54EB"/>
<path d="M64.5146 103.966C66.8113 103.966 68.6732 102.104 68.6732 99.807C68.6732 97.5103 66.8113 95.6484 64.5146 95.6484C62.2178 95.6484 60.356 97.5103 60.356 99.807C60.356 102.104 62.2178 103.966 64.5146 103.966Z" fill="#3E54EB"/>
<path d="M68.6732 80.7467C68.6732 78.4942 66.7671 76.5881 64.5146 76.5881C62.262 76.5881 60.356 78.4942 60.356 80.7467C60.356 82.9993 62.262 84.9053 64.5146 84.9053C66.7671 84.9053 68.6732 82.9993 68.6732 80.7467Z" fill="#3E54EB"/>
<path d="M64.5146 65.6716C66.8113 65.6716 68.6732 63.8097 68.6732 61.513C68.6732 59.2162 66.8113 57.3544 64.5146 57.3544C62.2178 57.3544 60.356 59.2162 60.356 61.513C60.356 63.8097 62.2178 65.6716 64.5146 65.6716Z" fill="#3E54EB"/>
<path d="M48.9202 176.568C48.9202 174.315 47.0142 172.409 44.7616 172.409C42.509 172.409 40.603 174.315 40.603 176.568C40.603 178.82 42.509 180.726 44.7616 180.726C47.0142 180.726 48.9202 178.82 48.9202 176.568Z" fill="#3E54EB"/>
<path d="M48.9202 157.334C48.9202 155.081 47.0142 153.175 44.7616 153.175C42.509 153.175 40.603 155.081 40.603 157.334C40.603 159.587 42.509 161.493 44.7616 161.493C47.0142 161.493 48.9202 159.76 48.9202 157.334Z" fill="#3E54EB"/>
<path d="M48.9202 138.274C48.9202 136.021 47.0142 134.115 44.7616 134.115C42.509 134.115 40.603 136.021 40.603 138.274C40.603 140.526 42.509 142.432 44.7616 142.432C47.0142 142.432 48.9202 140.526 48.9202 138.274Z" fill="#3E54EB"/>
<path d="M48.9202 119.04C48.9202 116.788 47.0142 114.881 44.7616 114.881C42.509 114.881 40.603 116.788 40.603 119.04C40.603 121.293 42.509 123.199 44.7616 123.199C47.0142 123.199 48.9202 121.293 48.9202 119.04Z" fill="#3E54EB"/>
<path d="M48.9202 99.807C48.9202 97.5545 47.0142 95.6484 44.7616 95.6484C42.509 95.6484 40.603 97.5545 40.603 99.807C40.603 102.06 42.509 103.966 44.7616 103.966C47.0142 104.139 48.9202 102.233 48.9202 99.807Z" fill="#3E54EB"/>
<path d="M48.9202 80.7467C48.9202 78.4942 47.0142 76.5881 44.7616 76.5881C42.509 76.5881 40.603 78.4942 40.603 80.7467C40.603 82.9993 42.509 84.9053 44.7616 84.9053C47.0142 84.9053 48.9202 82.9993 48.9202 80.7467Z" fill="#3E54EB"/>
<path d="M48.9202 61.513C48.9202 59.2604 47.0142 57.3544 44.7616 57.3544C42.509 57.3544 40.603 59.2604 40.603 61.513C40.603 63.7656 42.509 65.6716 44.7616 65.6716C47.0142 65.8449 48.9202 63.9388 48.9202 61.513Z" fill="#3E54EB"/>
<path d="M28.9935 176.568C28.9935 174.315 27.0875 172.409 24.8349 172.409C22.5823 172.409 20.6763 174.315 20.6763 176.568C20.6763 178.82 22.5823 180.726 24.8349 180.726C27.0875 180.726 28.9935 178.82 28.9935 176.568Z" fill="#3E54EB"/>
<path d="M28.9935 157.334C28.9935 155.081 27.0875 153.175 24.8349 153.175C22.5823 153.175 20.6763 155.081 20.6763 157.334C20.6763 159.587 22.5823 161.493 24.8349 161.493C27.0875 161.493 28.9935 159.76 28.9935 157.334Z" fill="#3E54EB"/>
<path d="M28.9935 138.274C28.9935 136.021 27.0875 134.115 24.8349 134.115C22.5823 134.115 20.6763 136.021 20.6763 138.274C20.6763 140.526 22.5823 142.432 24.8349 142.432C27.0875 142.432 28.9935 140.526 28.9935 138.274Z" fill="#3E54EB"/>
<path d="M28.9935 119.04C28.9935 116.788 27.0875 114.881 24.8349 114.881C22.5823 114.881 20.6763 116.788 20.6763 119.04C20.6763 121.293 22.5823 123.199 24.8349 123.199C27.0875 123.199 28.9935 121.293 28.9935 119.04Z" fill="#3E54EB"/>
<path d="M28.9935 99.807C28.9935 97.5545 27.0875 95.6484 24.8349 95.6484C22.5823 95.6484 20.6763 97.5545 20.6763 99.807C20.6763 102.06 22.5823 103.966 24.8349 103.966C27.0875 104.139 28.9935 102.233 28.9935 99.807Z" fill="#3E54EB"/>
<path d="M28.9935 80.7467C28.9935 78.4942 27.0875 76.5881 24.8349 76.5881C22.5823 76.5881 20.6763 78.4942 20.6763 80.7467C20.6763 82.9993 22.5823 84.9053 24.8349 84.9053C27.0875 84.9053 28.9935 82.9993 28.9935 80.7467Z" fill="#3E54EB"/>
<path d="M28.9935 61.513C28.9935 59.2604 27.0875 57.3544 24.8349 57.3544C22.5823 57.3544 20.6763 59.2604 20.6763 61.513C20.6763 63.7656 22.5823 65.6716 24.8349 65.6716C27.0875 65.8449 28.9935 63.9388 28.9935 61.513Z" fill="#3E54EB"/>
<path d="M9.24006 176.568C9.24006 174.315 7.33404 172.409 5.08145 172.409C2.82887 172.409 0.922852 174.315 0.922852 176.568C0.922852 178.82 2.82887 180.726 5.08145 180.726C7.33404 180.726 9.24006 178.82 9.24006 176.568Z" fill="#3E54EB"/>
<path d="M9.24006 157.334C9.24006 155.081 7.33404 153.175 5.08145 153.175C2.82887 153.175 0.922852 155.081 0.922852 157.334C0.922852 159.587 2.82887 161.493 5.08145 161.493C7.33404 161.493 9.24006 159.76 9.24006 157.334Z" fill="#3E54EB"/>
<path d="M9.24006 138.274C9.24006 136.021 7.33404 134.115 5.08145 134.115C2.82887 134.115 0.922852 136.021 0.922852 138.274C0.922852 140.526 2.82887 142.432 5.08145 142.432C7.33404 142.432 9.24006 140.526 9.24006 138.274Z" fill="#3E54EB"/>
<path d="M9.24006 119.04C9.24006 116.788 7.33404 114.881 5.08145 114.881C2.82887 114.881 0.922852 116.788 0.922852 119.04C0.922852 121.293 2.82887 123.199 5.08145 123.199C7.33404 123.199 9.24006 121.293 9.24006 119.04Z" fill="#3E54EB"/>
<path d="M9.24006 99.807C9.24006 97.5545 7.33404 95.6484 5.08145 95.6484C2.82887 95.6484 0.922852 97.5545 0.922852 99.807C0.922852 102.06 2.82887 103.966 5.08145 103.966C7.33404 103.966 9.24006 102.233 9.24006 99.807Z" fill="#3E54EB"/>
<path d="M9.24006 80.7467C9.24006 78.4942 7.33404 76.5881 5.08145 76.5881C2.82887 76.5881 0.922852 78.4942 0.922852 80.7467C0.922852 82.9993 2.82887 84.9053 5.08145 84.9053C7.33404 84.9053 9.24006 82.9993 9.24006 80.7467Z" fill="#3E54EB"/>
<path d="M9.24006 61.513C9.24006 59.2604 7.33404 57.3544 5.08145 57.3544C2.82887 57.3544 0.922852 59.2604 0.922852 61.513C0.922852 63.7656 2.82887 65.6716 5.08145 65.6716C7.33404 65.6716 9.24006 63.9388 9.24006 61.513Z" fill="#3E54EB"/>
</svg>
